<?xml version="1.0" encoding="UTF-8"?>
<!DOCTYPE svg PUBLIC "-//W3C//DTD SVG 1.1//EN" "http://www.w3.org/Graphics/SVG/1.1/DTD/svg11.dtd">
<svg 
xmlns="http://www.w3.org/2000/svg" 
xml:space="preserve" 
width="216.00000pt" 
height="60.64008pt" 
version="1.1" 
style="shape-rendering:geometricPrecision; text-rendering:geometricPrecision; image-rendering:optimizeQuality; fill-rule:evenodd; clip-rule:evenodd" 
viewBox="0 0 216.00000 60.64008" 
xmlns:xlink="http://www.w3.org/1999/xlink"
>
<defs>
<symbol id="Logo07162025130442">
<path d="M196.40903 50.60801L216 50.60801 216 31.01703 196.40903 31.01703 196.40903 50.60801Z" fill="#00B6ED"/>
<path d="M80.54472 57.72132C80.41943 57.46366 79.6963 57.82621 78.95758 57.71764 76.85652 57.40413 74.09443 54.53317 73.2582 49.8211 71.75441 41.32871 72.64591 32.95169 75.13872 20.46922 75.6087 18.10794 77.22361 14.0178 72.09825 13.23089 70.46775 12.97803 71.31191 13.7828 70.85553 15.94169 68.88487 25.23601 61.28171 31.93801 53.6488 36.42842 52.84998 25.7848 53.17483 13.96819 55.17838 6.71512 56.86982 0.60186 58.88075 1.72496 56.38737 0.43774 55.86351 0.16731 55.33145 0.02303 54.79769 0.00006L54.49862 0.00006C52.45682 0.08737 50.40197 1.95145 48.66119 5.42931 46.38128 9.98009 35.86663 34.71854 19.07801 51.41476 10.48612 59.95789 2.71459 55.55932 1.15836 54.2429 -0.10761 53.17253 -0.57562 54.82486 0.99508 56.51432 7.94399 64.00579 18.09494 59.71298 21.79021 56.01429 32.00609 45.80352 43.88336 23.82264 48.68785 14.49629 48.2445 19.75035 48.09455 28.55314 49.07251 38.87559 43.87399 41.41006 39.21182 42.90309 37.01382 43.47626 34.63213 44.10527 33.15923 45.06905 33.11586 46.17259 33.0688 47.38272 34.66785 48.4049 36.97867 49.49682 41.09432 51.45189 53.14507 57.14532 56.11439 58.87193 58.65738 60.35049 59.89868 59.19621 60.65156 57.60425 61.63491 55.53012 58.93546 54.33078 56.3233 53.54955 55.31756 50.05468 54.5145 45.34629 53.97932 40.16848 60.10561 36.39639 66.1375 31.37562 69.61451 25.10023 68.73803 30.34635 66.4907 48.18238 72.12149 55.72345 73.36223 57.38088 76.1025 59.19933 78.77786 58.93032 80.0342 58.8073 80.67058 57.97644 80.54472 57.72132ZM51.09873 52.1101C48.43385 51.14518 44.63539 49.60028 39.67444 47.0709 42.39231 46.07791 45.84438 44.62373 49.4807 42.72337 49.97138 46.87361 50.50486 49.8914 51.09873 52.1101ZM207.62412 39.70955C207.37411 34.82484 203.04612 34.02915 202.44915 35.41842 202.23995 35.90287 204.07511 35.73222 204.08106 39.18343 204.08616 44.89132 198.29408 52.34453 190.916 52.34453 182.87575 52.34453 180.79992 46.09435 180.41185 42.99777 180.15588 40.94603 180.59979 37.97048 177.0437 38.36705 174.5577 38.63918 172.31179 43.48504 169.15877 47.565 166.45564 51.05928 165.24183 50.72735 165.87283 47.72544 166.65775 43.96155 169.79771 35.12957 173.39066 34.48213 175.05178 34.19299 175.64677 37.11186 176.40986 35.28377 177.17778 33.45372 176.47478 29.50048 172.75484 29.50048 170.15063 29.50048 167.02569 32.2623 164.46258 35.40594 162.23056 38.14907 150.94064 54.75853 146.20645 51.17183 143.99144 49.49682 144.17257 42.66979 145.56439 34.61961 151.18158 32.45478 155.85567 33.16571 158.49956 34.43223 159.80352 35.05898 159.9855 34.96941 159.42764 33.53365 158.60359 31.42437 154.08371 28.12652 147.02255 29.64221 146.85247 29.67736 146.68664 29.71733 146.51656 29.76156 147.08662 27.14799 147.74852 24.49246 148.47164 21.91263 149.13155 19.55107 151.0716 15.46263 146.00746 14.66949 144.39764 14.42033 145.0825 15.19759 144.54845 17.38425 143.57163 21.39899 142.33656 26.60204 141.44251 31.84248 137.28036 34.23494 133.40536 38.23496 130.56729 43.50659 131.0574 41.07671 131.8205 38.39313 131.87436 36.57469 131.9285 34.66837 130.62144 34.24458 130.11034 34.09746 129.00143 33.78168 127.65949 34.33444 126.33541 36.19966 123.23343 40.57271 119.30117 47.48817 113.33419 50.38747 109.05611 52.46557 107.17814 50.3699 107.07326 47.14829 107.91714 46.89118 108.67315 46.62161 109.31322 46.33842 117.06917 42.90309 119.7312 37.71451 117.76139 34.55725 115.89136 31.55902 110.54431 32.4732 106.32321 36.92251 104.24115 39.112 102.63701 42.87758 102.45105 46.30837 100.66123 46.69219 98.6027 47.03972 96.30406 47.34757 99.94689 41.44011 99.63253 33.44776 94.30421 32.10214 88.12093 30.53967 84.9943 36.53954 83.66938 41.53564 84.07757 36.53954 84.87553 30.45548 86.00486 24.81307 86.47683 22.4498 88.09174 18.35796 82.96439 17.57389 81.33503 17.31877 81.58731 18.08045 81.72366 20.27987 81.90337 23.24181 78.6279 41.15693 80.33921 49.02797 78.13326 49.74003 77.23807 51.40115 80.07502 53.149 82.0298 54.35629 86.3334 54.75768 90.68065 52.61411 92.24057 51.84251 93.59129 50.76561 94.71523 49.49086 97.30527 49.1629 100.0291 48.74591 102.51001 48.25467 102.93607 51.69992 105.18906 54.34552 110.41619 53.85541 117.84841 53.16601 124.45036 44.03696 126.94345 39.6333 126.4933 44.34934 123.4242 54.64826 128.65928 54.123 130.70931 53.91408 129.81752 53.58583 129.94451 51.81331 130.3975 45.61105 135.56453 40.34054 140.67544 37.1215 139.78848 44.71926 140.09547 51.5117 143.54243 53.66804 149.88444 57.63345 158.86863 47.18825 163.81175 40.80458 161.29568 46.47449 159.86872 53.73834 163.64874 54.85236 168.08358 56.14724 171.57987 48.79184 175.66973 43.15679 176.14568 47.19789 178.83974 54.16297 189.70503 54.16297 200.72906 54.16297 208.00708 47.14829 207.62412 39.70955ZM111.22208 37.31624C113.8212 34.90194 115.11126 35.07287 115.4534 35.72514 116.18928 37.12745 113.12613 42.07083 107.27027 44.77595 107.77513 42.11392 109.17432 39.21348 111.22208 37.31624ZM86.10492 52.26827C85.39058 52.37571 84.80126 52.36324 84.33268 52.27791 84.61275 52.03781 84.78765 51.68433 84.78765 51.26254 84.78765 50.99494 84.79701 50.71856 84.81203 50.43028 85.91585 50.3835 87.64273 50.25453 89.70013 50.05724 88.62097 51.24213 87.40774 52.06134 86.10492 52.26827ZM91.26998 47.93407C89.29789 48.13363 87.20194 48.31618 84.99146 48.48115 85.824 42.19385 89.09719 33.45683 93.16978 34.85999 95.52 35.6744 94.28238 43.0332 91.26998 47.93407Z" fill="#545860"/>

</symbol>
</defs>
<use xlink:href="#Logo07162025130442"/>
</svg>