<?xml version="1.0" encoding="UTF-8"?>
<svg id="svg63" xmlns="http://www.w3.org/2000/svg" xmlns:svg="http://www.w3.org/2000/svg" xmlns:sodipodi="http://sodipodi.sourceforge.net/DTD/sodipodi-0.dtd" xmlns:inkscape="http://www.inkscape.org/namespaces/inkscape" version="1.1" viewBox="0 0 332 332">
  <!-- Generator: Adobe Illustrator 29.3.1, SVG Export Plug-In . SVG Version: 2.1.0 Build 151)  -->
  <defs>
    <style>
      .st0 {
        fill: #d6007b;
      }
    </style>
  </defs>
  <sodipodi:namedview id="namedview63" bordercolor="#000000" borderopacity="0.25" inkscape:current-layer="svg63" inkscape:cx="165.73303" inkscape:cy="211.45249" inkscape:deskcolor="#d1d1d1" inkscape:pagecheckerboard="0" inkscape:pageopacity="0.0" inkscape:showpageshadow="2" inkscape:window-height="1027" inkscape:window-maximized="0" inkscape:window-width="1392" inkscape:window-x="54" inkscape:window-y="25" inkscape:zoom="1.0498812" pagecolor="#ffffff"/>
  <g id="g1">
    <path id="path1" class="st0" d="M41.2,125.3l-2.3,11c-4.7-1.7-9.7-2.4-14.4-2.4s-10.6,1.6-10.6,7,3.8,7,12.6,10.6c11,4.5,18.5,9,18.5,20.8s-11.6,19.7-24.7,19.7S6.6,190.9,0,188.6l2.4-11.1c6,2.4,12.6,3.6,17.5,3.6,7.4,0,11.5-2.6,11.5-7.7s-4-7.4-13.1-11C7.7,157.9.3,152.5.3,142.3s12.1-19.4,23.5-19.4,12.6.9,17.5,2.4"/>
  </g>
  <g id="g2">
    <path id="path2" class="st0" d="M90.4,166c0-9.3-3.9-15.7-11.9-15.7s-11.9,6.4-11.9,15.7,3.9,15.9,11.9,15.9,11.9-6.3,11.9-15.9M103.6,166c0,16.1-10,25.9-25.1,25.9s-25.2-9.8-25.2-25.9,9.8-25.7,25.2-25.7,25.1,9.7,25.1,25.7"/>
  </g>
  <g id="g3">
    <path id="path3" class="st0" d="M114.5,141.4h13v6.6h.2c2.5-5,8.6-7.7,15-7.7,11.1,0,18.3,7.1,18.3,18v32.5h-13.3v-27.6c0-8.1-1.8-13-9.1-13s-10.7,3.7-10.7,13.7v26.8h-13.3v-49.4Z"/>
  </g>
  <g id="g4">
    <path id="path4" class="st0" d="M181.8,141.4l12,33.1h.2l11.8-33.1h14l-26.8,67.7h-14.1l8-19.4-19.5-48.3h14.4Z"/>
  </g>
  <g id="g5">
    <path id="path5" class="st0" d="M274.3,134.6l-9.7,28.9h19.4l-9.7-28.9ZM261.4,174.6l-5.8,16.3h-14.5l24.1-66.8h18.7l23.9,66.8h-14.7l-5.9-16.3h-25.7Z"/>
  </g>
  <g id="g6">
    <rect id="rect5" class="st0" x="318.3" y="124" width="13.7" height="66.8"/>
  </g>
</svg>