<?xml version="1.0" encoding="UTF-8"?>
<svg id="Layer_1" xmlns="http://www.w3.org/2000/svg" xmlns:xlink="http://www.w3.org/1999/xlink" version="1.1" viewBox="0 0 589 282">
  <!-- Generator: Adobe Illustrator 29.5.1, SVG Export Plug-In . SVG Version: 2.1.0 Build 141)  -->
  <defs>
    <style>
      .st0 {
        fill: none;
      }

      .st1 {
        fill: #edb5b9;
      }

      .st2 {
        fill: #545860;
      }

      .st2, .st3 {
        fill-rule: evenodd;
      }

      .st3 {
        fill: #00b6ed;
      }

      .st4 {
        fill: #fff;
      }

      .st5 {
        fill: #003f58;
      }

      .st6 {
        fill: #c0487e;
      }

      .st7 {
        clip-path: url(#clippath);
      }
    </style>
    <symbol id="Logo07162025130442" viewBox="0 0 216 60.6">
      <g>
        <path class="st3" d="M196.4,10h19.6v19.6h-19.6V10Z"/>
        <path class="st2" d="M80.5,2.9c-.1.3-.8-.1-1.6,0-2.1.3-4.9,3.2-5.7,7.9-1.5,8.5-.6,16.9,1.9,29.4.5,2.4,2.1,6.5-3,7.2-1.6.3-.8-.6-1.2-2.7-2-9.3-9.6-16-17.2-20.5-.8,10.6-.5,22.5,1.5,29.7,1.7,6.1,3.7,5,1.2,6.3-.5.3-1.1.4-1.6.4h-.3c-2,0-4.1-2-5.8-5.4-2.3-4.6-12.8-29.3-29.6-46C10.5.7,2.7,5.1,1.2,6.4c-1.3,1.1-1.7-.6-.2-2.3,6.9-7.5,17.1-3.2,20.8.5,10.2,10.2,22.1,32.2,26.9,41.5-.4-5.3-.6-14.1.4-24.4-5.2-2.5-9.9-4-12.1-4.6-2.4-.6-3.9-1.6-3.9-2.7,0-1.2,1.6-2.2,3.9-3.3,4.1-2,16.2-7.6,19.1-9.4,2.5-1.5,3.8-.3,4.5,1.3,1,2.1-1.7,3.3-4.3,4.1-1,3.5-1.8,8.2-2.3,13.4,6.1,3.8,12.2,8.8,15.6,15.1-.9-5.2-3.1-23.1,2.5-30.6,1.2-1.7,4-3.5,6.7-3.2,1.3.1,1.9,1,1.8,1.2ZM51.1,8.5c-2.7,1-6.5,2.5-11.4,5,2.7,1,6.2,2.4,9.8,4.3.5-4.2,1-7.2,1.6-9.4ZM207.6,20.9c-.2,4.9-4.6,5.7-5.2,4.3-.2-.5,1.6-.3,1.6-3.8,0-5.7-5.8-13.2-13.2-13.2s-10.1,6.3-10.5,9.3c-.3,2.1.2,5-3.4,4.6-2.5-.3-4.7-5.1-7.9-9.2-2.7-3.5-3.9-3.2-3.3-.2.8,3.8,3.9,12.6,7.5,13.2,1.7.3,2.3-2.6,3-.8.8,1.8,0,5.8-3.7,5.8s-5.7-2.8-8.3-5.9c-2.2-2.7-13.5-19.4-18.3-15.8-2.2,1.7-2,8.5-.6,16.6,5.6,2.2,10.3,1.5,12.9.2,1.3-.6,1.5-.5.9.9-.8,2.1-5.3,5.4-12.4,3.9-.2,0-.3,0-.5-.1.6,2.6,1.2,5.3,2,7.8.7,2.4,2.6,6.4-2.5,7.2-1.6.2-.9-.5-1.5-2.7-1-4-2.2-9.2-3.1-14.5-4.2-2.4-8-6.4-10.9-11.7.5,2.4,1.3,5.1,1.3,6.9,0,1.9-1.3,2.3-1.8,2.5-1.1.3-2.5-.2-3.8-2.1-3.1-4.4-7-11.3-13-14.2-4.3-2.1-6.2,0-6.3,3.2.8.3,1.6.5,2.2.8,7.8,3.4,10.4,8.6,8.4,11.8-1.9,3-7.2,2.1-11.4-2.4-2.1-2.2-3.7-6-3.9-9.4-1.8-.4-3.8-.7-6.1-1,3.6,5.9,3.3,13.9-2,15.2-6.2,1.6-9.3-4.4-10.6-9.4.4,5,1.2,11.1,2.3,16.7.5,2.4,2.1,6.5-3,7.2-1.6.3-1.4-.5-1.2-2.7.2-3-3.1-20.9-1.4-28.7-2.2-.7-3.1-2.4-.3-4.1,2-1.2,6.3-1.6,10.6.5,1.6.8,2.9,1.8,4,3.1,2.6.3,5.3.7,7.8,1.2.4-3.4,2.7-6.1,7.9-5.6,7.4.7,14,9.8,16.5,14.2-.5-4.7-3.5-15,1.7-14.5,2.1.2,1.2.5,1.3,2.3.5,6.2,5.6,11.5,10.7,14.7-.9-7.6-.6-14.4,2.9-16.5,6.3-4,15.3,6.5,20.3,12.9-2.5-5.7-3.9-12.9-.2-14,4.4-1.3,7.9,6.1,12,11.7.5-4,3.2-11,14-11s18.3,7,17.9,14.5ZM111.2,23.3c2.6,2.4,3.9,2.2,4.2,1.6.7-1.4-2.3-6.3-8.2-9.1.5,2.7,1.9,5.6,4,7.5ZM86.1,8.4c-.7-.1-1.3,0-1.8,0,.3.2.5.6.5,1s0,.5,0,.8c1.1,0,2.8.2,4.9.4-1.1-1.2-2.3-2-3.6-2.2ZM91.3,12.7c-2-.2-4.1-.4-6.3-.5.8,6.3,4.1,15,8.2,13.6,2.4-.8,1.1-8.2-1.9-13.1Z"/>
      </g>
    </symbol>
    <clipPath id="clippath">
      <rect class="st0" x="-17.3" y="-16.3" width="333.6" height="333.6"/>
    </clipPath>
  </defs>
  <use width="216" height="60.6" transform="translate(349.5 180.8) scale(1 -1)" xlink:href="#Logo07162025130442"/>
  <g class="st7">
    <g>
      <path class="st1" d="M28.8,71.3c-9.9,10.4-17.4,22.8-20.9,37.4-8.6,36.2,8.6,90,66.7,128.5,31.5,20.9,76.8,16.2,108.7,4.8,49.9-17.8,82.8-101.5,60.7-154.5-20.6-49.3-71-69.7-138.3-56-25.9,5.3-56.4,18.3-76.9,39.8M215,222c-9.5,10-20.1,17.4-31.1,21.3-32.2,11.5-78,16.2-110-5C15.2,199.3-2.2,144.9,6.5,108.2,17.3,63.1,66.4,37.9,105.3,30c68.1-13.8,119.1,6.9,140,56.9,10.7,25.7,9.4,60.2-3.6,92.3-6.8,16.8-16,31.4-26.8,42.7"/>
      <path class="st6" d="M218.5,238.8c-64.6,29.1-126.5,22.2-158.5-3-34.7-27.4-35.5-76.7-20.7-115.9C60,64.8,103.2,24.9,167.6,30.8s124.2,72,114.4,120.2c-5.7,28.3-24.2,70.2-63.4,87.8"/>
      <path class="st5" d="M61,221.6c25.5,43.2,74.6,60.7,136.9,48.1,38.2-7.7,85.7-32.8,93.9-78.2,6.7-37-13.7-92.2-74.3-132.1-32.9-21.6-78.1-17.1-109.6-5.7-18.8,6.8-36.3,24.9-47.9,49.6-16.9,36-18.7,77.4-4.5,108.1,1.7,3.6,3.4,7,5.4,10.3M276.8,117.5c15.6,26.5,20.4,53.2,16.6,74.1-8.3,46.1-56.5,71.6-95.2,79.4-67.7,13.7-120.2-7.9-143.9-59.1-14.3-31-12.6-72.9,4.5-109.2,11.8-25.1,29.6-43.4,48.8-50.4,31.8-11.6,77.6-16.1,110.9,5.8,26.9,17.7,46,38.5,58.3,59.4"/>
      <path class="st4" d="M211,116.7c-5.3-.6-10.8.6-15.5,2.7-1.3-3.3-2.7-6.8-3.9-10.3,7.6-6.2,12.8-12.6,13.5-17.5.4-3-.6-6.9-7.6-8.8-4.7-1.3-8-.9-9.9,1.2-3.7,4.1-1.3,14,2.6,24.7-3.8,3-8.2,6.1-13.1,9-.8.5-1.6.9-2.3,1.4h0-.2c-22.9-11.5-46.5-23.4-56.5-16.4-3.9,2.7-5.4,8-4.4,16.1,1.1,9.8,7.6,15.1,18.8,15.2h.5c12.4,0,28.2-5.9,41.9-13.7,3.8,1.9,7.6,3.8,11.2,5.6-1.1,1.3-1.8,2.7-2.1,4.1-.7,3.8,1.4,9.2,15.6,13.3l.3-1.1c-10.5-3-15.7-7.2-14.8-12,.2-1.3.9-2.6,2-3.8,4.3,2,8.3,3.9,12.1,5.4,1.9,5.1,3,9.2,2,10.3-.2.2-.7.3-1.3.1l-.3,1.1c.4.1.7.2,1,.2.6,0,1.1-.2,1.4-.6,1.2-1.4.5-4.9-1.5-10.5,8.1,3.1,14.6,4.4,18.2,2.2,2-1.2,3-3.4,3.1-6.5.1-6.6-3.7-10.7-10.9-11.4h0ZM132.4,133c-10.7-.1-16.6-4.9-17.7-14.2-.9-7.6.5-12.6,4-15.1,1.9-1.3,4.3-1.9,7.1-1.9,11.6,0,30.6,9.4,47.7,18-14.9,8.3-30.4,13.3-41.1,13.1h0ZM188.5,84.8c.9-1.1,2.4-1.6,4.3-1.6s2.7.2,4.4.7c5,1.4,7.3,3.9,6.8,7.6-.6,4.4-5.3,10.4-12.8,16.5-3.6-10.1-5.9-19.6-2.7-23.2h0ZM176,119.8c-.4.2-.7.4-1.1.6.1-.2,0-1,0-1.2.4.2.8.4,1.1.6ZM186.9,125.2c-3.5-1.7-7.2-3.5-10.9-5.4,5.3-3.1,10.3-6.5,14.6-9.9,1.2,3.3,2.5,6.7,3.9,10h0c-3.1,1.5-5.7,3.3-7.6,5.3h0ZM194.9,120.9c.1.3.3.7.4,1,1.2,2.9,2.3,5.8,3.3,8.5-3.4-1.4-7-3-10.8-4.8,1.8-1.8,4.2-3.4,7-4.7h0ZM198.8,130.7c.1.3.2.6.4,1-.1-.3-.2-.6-.4-1ZM218.2,133.7c-3.4,2.1-9.9.6-18.1-2.7.1.3.2.6.4,1-.1-.3-.2-.6-.4-1-1-2.7-2.2-5.9-3.7-9.5-.1-.4-.3-.7-.4-1.1,4.7-2,10.2-3.1,14.9-2.6,4.6.5,10,2.7,9.9,10.3,0,2.8-.9,4.6-2.5,5.6h0Z"/>
      <path class="st4" d="M120.9,191c-2.3,0-3-1.9-3-5.1v-27.6c0-1.7-.4-2.1-2.1-2.1h-1.6c-1.7,0-2.1.5-2.1,2.1v2.6c-3.6-3.6-8.8-5.7-15.1-5.7-12.7,0-20.8,8.5-20.8,20.7s8,20.5,20.8,20.5,11.8-2.2,15.4-5.9c.7,3.9,2.7,5.6,7.3,5.6s2.7-1.6,2.6-3.2c0-1.2-.7-1.9-1.3-1.9M96.9,191.3c-9.2,0-14.7-6.2-14.7-15.3s5.5-15.5,14.7-15.5,14.8,6.4,14.8,15.5-5.6,15.3-14.8,15.3"/>
      <path class="st4" d="M185.5,193.5c0,1.7-.5,2.1-2.1,2.1h-1.7c-1.7,0-2.1-.5-2.1-2.1v-21.6c0-8.6-4.8-11.3-9.4-11.3s-9.5,2.7-9.5,11.3v21.6c0,1.7-.5,2.1-2.1,2.1h-1.6c-1.8,0-2.1-.5-2.1-2.1v-21.6c0-8.6-4.9-11.3-9.5-11.3s-9.4,2.7-9.4,11.3v21.6c0,1.7-.4,2.1-2.1,2.1h-1.6c-1.8,0-2.1-.5-2.1-2.1v-21.3c0-13.2,7.7-16.7,14.8-16.7s10.6,2.1,13.1,8.4c2.3-6.1,7.5-8.4,13.1-8.4s14.8,3.6,14.8,16.7v21.3h0Z"/>
      <path class="st4" d="M203.1,186.1v-27.6c0-1.7-.4-2.1-2.1-2.1h-1.6c-1.7,0-2.1.5-2.1,2.1v28.2c0,6.7,1.7,9.5,7.6,9.5s2.7-1.6,2.6-3.2c0-1.2-.7-1.9-1.3-1.9-2.3,0-3-1.9-3-5.1"/>
      <path class="st4" d="M221,186.1v-27.6c0-1.7-.4-2.1-2.1-2.1h-1.6c-1.7,0-2.1.5-2.1,2.1v28.2c0,6.7,1.7,9.5,7.6,9.5s2.7-1.6,2.6-3.2c0-1.2-.7-1.9-1.3-1.9-2.3,0-3-1.9-3-5.1"/>
      <path class="st4" d="M213.7,133.9c0-2.4,1.7-4.1,4.1-4.1s3.9,1.6,3.9,4.1-1.7,4.1-3.9,4.1-4.1-1.6-4.1-4.1"/>
      <path class="st4" d="M171.2,120.1c0-2.4,1.7-4.1,4.1-4.1s3.9,1.6,3.9,4.1-1.7,4.1-3.9,4.1-4.1-1.6-4.1-4.1"/>
      <path class="st4" d="M196.7,142c0-2.4,1.7-4.1,4.1-4.1s3.9,1.6,3.9,4.1-1.7,4.1-3.9,4.1-4.1-1.6-4.1-4.1"/>
      <path class="st4" d="M114.5,127.7c0-2.4,1.7-4.1,4.1-4.1s3.9,1.6,3.9,4.1-1.7,4.1-3.9,4.1-4.1-1.6-4.1-4.1"/>
      <path class="st4" d="M192.5,83.6c0-2.4,1.7-4.1,4.1-4.1s3.9,1.7,3.9,4.1-1.7,4.1-3.9,4.1-4.1-1.6-4.1-4.1"/>
    </g>
  </g>
</svg>