<?xml version="1.0" encoding="UTF-8"?><svg id="Layer_1" xmlns="http://www.w3.org/2000/svg" width="5in" height="5in" xmlns:xlink="http://www.w3.org/1999/xlink" viewBox="0 0 360 360"><defs><style>.cls-1{clip-path:url(#clippath);}.cls-2{fill:none;}.cls-2,.cls-3,.cls-4,.cls-5,.cls-6{stroke-width:0px;}.cls-3{fill:#c0487e;}.cls-4{fill:#edb5b9;}.cls-5{fill:#fff;}.cls-6{fill:#003f58;}</style><clipPath id="clippath"><rect class="cls-2" x="13.21" y="13.21" width="333.59" height="333.59"/></clipPath></defs><g class="cls-1"><path class="cls-4" d="m59.31,100.76c-9.9,10.43-17.42,22.85-20.88,37.36-8.64,36.2,8.63,89.98,66.69,128.51,31.51,20.91,76.81,16.2,108.69,4.82,49.88-17.8,82.77-101.54,60.68-154.5-20.56-49.28-70.97-69.69-138.31-56-25.91,5.26-56.45,18.28-76.88,39.8m186.19,150.75c-9.49,10-20.1,17.36-31.12,21.29-32.21,11.49-78.02,16.21-109.99-5-58.68-38.94-76.11-93.4-67.35-130.1,10.75-45.04,59.92-70.24,98.76-78.14,68.1-13.84,119.14,6.91,140,56.93,10.71,25.67,9.38,60.16-3.56,92.28-6.78,16.82-16.04,31.45-26.75,42.73"/><path class="cls-3" d="m248.99,268.34c-64.6,29.06-126.53,22.22-158.51-3.03-34.68-27.39-35.5-76.68-20.72-115.86,20.79-55.11,63.96-95.01,128.3-89.15,64.34,5.86,124.15,72.04,114.37,120.23-5.74,28.29-24.24,70.18-63.44,87.81"/><path class="cls-6" d="m91.52,251.08c25.45,43.2,74.64,60.69,136.91,48.1,38.2-7.72,85.71-32.82,93.91-78.16,6.7-37.03-13.66-92.25-74.26-132.13-32.86-21.63-78.15-17.13-109.58-5.72-18.81,6.83-36.26,24.9-47.87,49.57-16.95,36.01-18.67,77.41-4.5,108.05,1.65,3.57,3.45,7.01,5.38,10.29m215.77-104.06c15.61,26.5,20.35,53.18,16.56,74.14-8.34,46.12-56.51,71.63-95.21,79.45-67.74,13.69-120.2-7.88-143.91-59.14-14.34-31-12.61-72.86,4.52-109.24,11.8-25.06,29.59-43.44,48.81-50.43,31.79-11.55,77.63-16.07,110.95,5.85,26.93,17.72,45.98,38.48,58.28,59.36"/><path class="cls-5" d="m241.52,146.23c-5.26-.56-10.81.61-15.51,2.67-1.34-3.34-2.71-6.82-3.95-10.26,7.62-6.25,12.82-12.56,13.52-17.47.42-2.96-.55-6.9-7.58-8.84-4.66-1.28-7.98-.87-9.86,1.24-3.69,4.13-1.29,13.97,2.58,24.73-3.78,3.03-8.22,6.09-13.15,9.03-.77.46-1.55.9-2.32,1.35,0,0,0,0,.01,0,0,0,0,0,0,0-.06-.03-.12-.06-.18-.09-22.88-11.45-46.54-23.29-56.51-16.31-3.92,2.74-5.37,8.01-4.45,16.12,1.12,9.82,7.62,15.09,18.8,15.24.17,0,.35,0,.52,0,12.35,0,28.2-5.87,41.9-13.66,3.82,1.91,7.6,3.8,11.25,5.56-1.11,1.34-1.84,2.72-2.1,4.06-.74,3.8,1.37,9.19,15.61,13.26l.31-1.09c-10.47-2.99-15.72-7.24-14.81-11.96.25-1.29.95-2.57,1.99-3.8,4.26,2.04,8.33,3.88,12.1,5.38,1.87,5.14,2.99,9.22,2.04,10.27-.23.25-.67.28-1.33.1l-.31,1.09c.38.11.73.16,1.04.16.6,0,1.08-.2,1.44-.59,1.24-1.37.52-4.85-1.49-10.49,8.1,3.1,14.63,4.42,18.23,2.25,1.99-1.2,3.03-3.4,3.09-6.53.13-6.62-3.73-10.68-10.88-11.45Zm-78.59,16.28c-10.67-.15-16.62-4.94-17.68-14.24-.86-7.55.47-12.62,3.97-15.06,1.85-1.29,4.27-1.86,7.13-1.86,11.63,0,30.55,9.41,47.73,18.01-14.91,8.31-30.38,13.29-41.14,13.15Zm56.06-48.18c.95-1.06,2.39-1.59,4.3-1.59,1.26,0,2.73.23,4.41.69,5.01,1.38,7.28,3.93,6.76,7.59-.63,4.44-5.34,10.38-12.8,16.52-3.6-10.12-5.93-19.56-2.67-23.21Zm-12.47,34.98c-.36.21-.73.42-1.09.62.1-.22.08-.97-.05-1.19.38.19.76.38,1.14.57Zm10.85,5.35c-3.52-1.69-7.16-3.51-10.85-5.35,5.34-3.1,10.32-6.49,14.6-9.91,1.21,3.3,2.54,6.67,3.86,9.97h0c-3.08,1.47-5.73,3.32-7.61,5.29Zm8.05-4.21c.14.34.28.69.41,1.03,1.16,2.89,2.33,5.81,3.34,8.51-3.37-1.38-6.99-3.03-10.77-4.83,1.77-1.77,4.23-3.39,7.02-4.7Zm3.84,9.79c.12.33.24.65.36.97-.12-.32-.24-.65-.36-.97Zm19.47,2.98c-3.41,2.06-9.95.58-18.14-2.66.12.33.24.65.35.96-.11-.32-.23-.63-.35-.96-1-2.72-2.25-5.88-3.71-9.51-.14-.35-.28-.71-.43-1.07,4.7-2.01,10.19-3.14,14.95-2.64,4.59.49,10.02,2.67,9.87,10.29-.06,2.76-.89,4.58-2.54,5.58Z"/><path class="cls-5" d="m151.44,220.47c-2.34-.04-2.99-1.87-2.99-5.05v-27.58c0-1.68-.37-2.15-2.15-2.15h-1.59c-1.68,0-2.15.47-2.15,2.15v2.65c-3.61-3.59-8.78-5.69-15.13-5.69-12.72,0-20.76,8.51-20.76,20.67s8.04,20.48,20.76,20.48c6.5,0,11.79-2.18,15.42-5.93.69,3.9,2.72,5.6,7.28,5.6,1.91,0,2.72-1.63,2.61-3.19-.09-1.21-.71-1.94-1.3-1.95m-24.02.33c-9.16,0-14.68-6.17-14.68-15.34s5.52-15.52,14.68-15.52,14.78,6.36,14.78,15.52-5.61,15.34-14.78,15.34"/><path class="cls-5" d="m215.96,222.98c0,1.68-.47,2.15-2.15,2.15h-1.68c-1.68,0-2.15-.47-2.15-2.15v-21.6c0-8.6-4.77-11.31-9.44-11.31s-9.54,2.71-9.54,11.31v21.6c0,1.68-.47,2.15-2.15,2.15h-1.59c-1.78,0-2.15-.47-2.15-2.15v-21.6c0-8.6-4.86-11.31-9.54-11.31s-9.44,2.71-9.44,11.31v21.6c0,1.68-.37,2.15-2.15,2.15h-1.59c-1.78,0-2.15-.47-2.15-2.15v-21.31c0-13.18,7.67-16.73,14.77-16.73,5.42,0,10.56,2.15,13.09,8.41,2.34-6.08,7.48-8.41,13.09-8.41,7.1,0,14.77,3.55,14.77,16.73v21.31Z"/><path class="cls-5" d="m233.63,215.6v-27.58c0-1.68-.37-2.15-2.15-2.15h-1.59c-1.68,0-2.15.47-2.15,2.15v28.23c0,6.73,1.7,9.54,7.57,9.54,1.91,0,2.72-1.63,2.61-3.19-.09-1.21-.71-1.94-1.3-1.95-2.34-.04-2.99-1.87-2.99-5.05"/><path class="cls-5" d="m251.49,215.6v-27.58c0-1.68-.37-2.15-2.15-2.15h-1.59c-1.68,0-2.15.47-2.15,2.15v28.23c0,6.73,1.7,9.54,7.57,9.54,1.91,0,2.72-1.63,2.61-3.19-.09-1.21-.71-1.94-1.3-1.95-2.34-.04-2.99-1.87-2.99-5.05"/><path class="cls-5" d="m244.19,163.45c0-2.42,1.74-4.06,4.06-4.06,2.13,0,3.87,1.65,3.87,4.06s-1.74,4.06-3.87,4.06c-2.32,0-4.06-1.55-4.06-4.06"/><path class="cls-5" d="m201.68,149.57c0-2.42,1.74-4.06,4.06-4.06,2.13,0,3.87,1.65,3.87,4.06s-1.74,4.06-3.87,4.06c-2.32,0-4.06-1.55-4.06-4.06"/><path class="cls-5" d="m227.22,171.5c0-2.42,1.74-4.06,4.06-4.06,2.13,0,3.87,1.65,3.87,4.06s-1.74,4.07-3.87,4.07c-2.32,0-4.06-1.55-4.06-4.07"/><path class="cls-5" d="m144.98,157.16c0-2.42,1.74-4.06,4.06-4.06,2.13,0,3.87,1.65,3.87,4.06s-1.74,4.06-3.87,4.06c-2.32,0-4.06-1.55-4.06-4.06"/><path class="cls-5" d="m222.97,113.1c0-2.42,1.74-4.06,4.06-4.06,2.13,0,3.87,1.65,3.87,4.06s-1.74,4.06-3.87,4.06c-2.32,0-4.06-1.55-4.06-4.06"/></g></svg>