<?xml version="1.0" encoding="UTF-8"?><svg id="Layer_2" xmlns="http://www.w3.org/2000/svg" viewBox="0 0 729.0635 114.9908"><g id="Components"><g id="b25b5cb0-1766-418a-8972-3e0e9e4d411b_4"><path d="m238.7071,89.856h-18.2227l-3.4229,10.168h-10.8057l17.6519-49.4653h11.6782l17.5176,49.4653h-11.2085l-3.188-10.168Zm-2.8862-8.5244l-6.1748-19.4634-6.376,19.4634h12.5508Z" style="stroke-width:0px;"/><path d="m275.815,72.2711c-3.8486,0-6.4326,1.2534-7.7524,3.7588-.7383,1.4092-1.1074,3.5791-1.1074,6.5098v17.4844h-9.6309v-36.5786h9.1279v6.376c1.4766-2.438,2.7627-4.105,3.8589-5,1.7896-1.499,4.1162-2.2485,6.9805-2.2485.1787,0,.3296.0059.4526.0166.123.0117.397.0283.8223.0503v9.7993c-.604-.0674-1.1406-.1118-1.6108-.1343-.4697-.022-.8501-.0337-1.1406-.0337Z" style="stroke-width:0px;"/><path d="m301.3223,93.2115v7.1484l-4.5303.167c-4.5195.1562-7.6069-.626-9.2622-2.3486-1.0737-1.0957-1.6108-2.7852-1.6108-5.0674v-22.5176h-5.1011v-6.8125h5.1011v-10.2017h9.4634v10.2017h5.9399v6.8125h-5.9399v19.3291c0,1.5.1899,2.4336.5708,2.8027.3799.3691,1.5435.5537,3.4897.5537.2905,0,.5981-.0059.9229-.0166.3242-.0117.6431-.0283.9565-.0508Z" style="stroke-width:0px;"/><path d="m316.3955,50.2569v8.8257h-9.6982v-8.8257h9.6982Zm0,13.1885v36.5786h-9.6982v-36.5786h9.6982Z" style="stroke-width:0px;"/><path d="m341.5205,50.2569v7.7856c-.5361-.0674-1.4375-.1177-2.7012-.1514-1.2646-.0332-2.1367.2466-2.6172.8389-.4814.5933-.7217,1.2476-.7217,1.9634v3.0874h6.2754v6.7451h-6.2754v29.498h-9.5308v-29.498h-5.3359v-6.7451h5.2354v-2.3491c0-3.9146.6597-6.6108,1.98-8.0874,1.3867-2.1924,4.7314-3.2891,10.0342-3.2891.6035,0,1.1514.0171,1.6445.0503.4912.0337,1.1621.084,2.0127.1514Z" style="stroke-width:0px;"/><path d="m355.4287,50.2569v8.8257h-9.6982v-8.8257h9.6982Zm0,13.1885v36.5786h-9.6982v-36.5786h9.6982Z" style="stroke-width:0px;"/><path d="m395.0655,76.567h-9.7998c-.1787-1.3643-.6377-2.5952-1.376-3.6919-1.0732-1.4766-2.7402-2.2148-5-2.2148-3.2217,0-5.4258,1.6001-6.6113,4.7993-.626,1.7002-.9395,3.96-.9395,6.7783,0,2.6846.3135,4.8438.9395,6.4766,1.1416,3.043,3.2891,4.5645,6.4434,4.5645,2.2373,0,3.8262-.6045,4.7656-1.8125.9395-1.208,1.5098-2.7734,1.7119-4.6982h9.7646c-.2236,2.9092-1.2744,5.6602-3.1543,8.2559-2.998,4.1836-7.4385,6.2754-13.3223,6.2754s-10.2139-1.7451-12.9873-5.2354c-2.7744-3.4902-4.1611-8.0205-4.1611-13.5908,0-6.2871,1.5322-11.1753,4.5977-14.6655,3.0645-3.4897,7.293-5.2349,12.6846-5.2349,4.5859,0,8.3398,1.0293,11.2588,3.0874,2.9199,2.0586,4.6484,5.6938,5.1855,10.9067Z" style="stroke-width:0px;"/><path d="m410.2315,50.2569v8.8257h-9.6982v-8.8257h9.6982Zm0,13.1885v36.5786h-9.6982v-36.5786h9.6982Z" style="stroke-width:0px;"/><path d="m419.7149,67.4054c2.5283-3.2217,6.8682-4.8325,13.0205-4.8325,4.0049,0,7.5625.7944,10.6719,2.3828,3.1094,1.5884,4.665,4.5864,4.665,8.9937v16.7788c0,1.1641.0215,2.5732.0674,4.2285.0664,1.2529.2568,2.1035.5703,2.5508.3125.4473.7822.8164,1.4092,1.1074v1.4092h-10.4033c-.291-.7383-.4922-1.4316-.6035-2.0811-.1123-.6484-.2021-1.3867-.2686-2.2148-1.3203,1.4326-2.8418,2.6514-4.5645,3.6582-2.0586,1.1855-4.3848,1.7783-6.9795,1.7783-3.3115,0-6.0469-.9453-8.2051-2.835-2.1602-1.8906-3.2393-4.5693-3.2393-8.0381,0-4.4961,1.7344-7.752,5.2021-9.7646,1.9014-1.0967,4.6982-1.8799,8.3896-2.3496l3.2549-.4023c1.7676-.2236,3.0313-.5039,3.792-.8389,1.3643-.582,2.0469-1.4883,2.0469-2.7187,0-1.4985-.5195-2.5337-1.5596-3.104-1.041-.5703-2.5674-.856-4.5811-.856-2.2598,0-3.8594.5596-4.7988,1.6782-.6709.8281-1.1191,1.9463-1.3428,3.356h-9.2285c.2012-3.1992,1.0957-5.8276,2.6846-7.8862Zm7.1143,25.7056c.8945.7383,1.9912,1.1074,3.2891,1.1074,2.0586,0,3.9541-.6045,5.6885-1.8125,1.7334-1.208,2.6338-3.4111,2.7012-6.6104v-3.5576c-.6035.3809-1.2139.6885-1.8291.9229-.6152.2354-1.46.4531-2.5332.6543l-2.1484.4033c-2.0127.3574-3.4561.7939-4.3281,1.3086-1.4766.8721-2.2148,2.2266-2.2148,4.0605,0,1.6328.458,2.8076,1.375,3.5234Z" style="stroke-width:0px;"/><path d="m455.5606,50.5587h9.5635v49.4653h-9.5635v-49.4653Z" style="stroke-width:0px;"/><path d="m523.2813,89.856h-18.2227l-3.4229,10.168h-10.8057l17.6514-49.4653h11.6787l17.5176,49.4653h-11.209l-3.1875-10.168Zm-2.8867-8.5244l-6.1738-19.4634-6.377,19.4634h12.5508Z" style="stroke-width:0px;"/><path d="m551.3174,106.4342c1.0293.8721,2.7637,1.3086,5.2021,1.3086,3.4453,0,5.749-1.1523,6.9131-3.457.7598-1.4766,1.1406-3.96,1.1406-7.4502v-2.3486c-.917,1.5664-1.9014,2.7412-2.9531,3.5234-1.9014,1.4551-4.374,2.1816-7.416,2.1816-4.6982,0-8.4521-1.6494-11.2588-4.9502-2.8086-3.2998-4.2119-7.7686-4.2119-13.4062,0-5.4365,1.3535-10.0059,4.0605-13.709,2.707-3.7021,6.5439-5.5537,11.5107-5.5537,1.834,0,3.4336.2798,4.7988.8389,2.3262.9624,4.2061,2.73,5.6377,5.3022v-5.2686h9.2959v34.6997c0,4.7197-.7949,8.2773-2.3828,10.6709-2.7295,4.1162-7.9648,6.1748-15.7051,6.1748-4.6768,0-8.4902-.917-11.4434-2.752-2.9531-1.834-4.5869-4.5752-4.9004-8.2217h10.4033c.2686,1.1191.7051,1.9238,1.3086,2.417Zm-1.6104-18.8936c1.2969,3.0869,3.624,4.6309,6.9805,4.6309,2.2363,0,4.127-.8447,5.6709-2.5342,1.5439-1.6885,2.3154-4.3789,2.3154-8.0703,0-3.4678-.7324-6.1074-2.1982-7.9199-1.4648-1.812-3.4287-2.7183-5.8887-2.7183-3.3564,0-5.6719,1.5771-6.9473,4.7319-.6709,1.6777-1.0068,3.7471-1.0068,6.208,0,2.126.3584,4.0166,1.0742,5.6719Z" style="stroke-width:0px;"/><path d="m613.5323,89.2857c-.2461,2.1699-1.376,4.374-3.3896,6.6104-3.1328,3.5576-7.5166,5.3359-13.1543,5.3359-4.6543,0-8.7588-1.498-12.3164-4.4971-3.5576-2.9971-5.3359-7.874-5.3359-14.6309,0-6.3311,1.6055-11.1865,4.8154-14.5645,3.21-3.3779,7.377-5.0674,12.501-5.0674,3.042,0,5.7832.5703,8.2217,1.7114s4.4521,2.9419,6.041,5.4028c1.4307,2.1704,2.3594,4.6875,2.7852,7.5508.2461,1.6777.3467,4.0937.3018,7.248h-25.0342c.1338,3.6699,1.2861,6.2422,3.4561,7.7188,1.3193.918,2.9082,1.376,4.7656,1.376,1.9678,0,3.5684-.5586,4.7988-1.6777.6709-.6045,1.2637-1.4434,1.7783-2.5166h9.7656Zm-9.4639-11.209c-.1562-2.5283-.9229-4.4463-2.2988-5.7554-1.376-1.3086-3.082-1.9629-5.1172-1.9629-2.2148,0-3.9326.6934-5.1514,2.0806-1.2197,1.3872-1.9854,3.2666-2.2988,5.6377h14.8662Z" style="stroke-width:0px;"/><path d="m636.6846,70.526c-3.2441,0-5.4697,1.376-6.6777,4.1279-.627,1.4541-.9404,3.3115-.9404,5.5703v19.7998h-9.5303v-36.5117h9.2285v5.3359c1.2305-1.8794,2.3936-3.2324,3.4902-4.0605,1.9688-1.4766,4.4629-2.2148,7.4834-2.2148,3.7803,0,6.874.9897,9.2793,2.9697,2.4043,1.98,3.6074,5.2637,3.6074,9.8496v24.6318h-9.7988v-22.249c0-1.9238-.2578-3.4014-.7725-4.4302-.9395-1.8789-2.7295-2.8188-5.3691-2.8188Z" style="stroke-width:0px;"/><path d="m691.8662,76.567h-9.7998c-.1787-1.3643-.6377-2.5952-1.376-3.6919-1.0732-1.4766-2.7402-2.2148-5-2.2148-3.2217,0-5.4258,1.6001-6.6113,4.7993-.626,1.7002-.9395,3.96-.9395,6.7783,0,2.6846.3135,4.8438.9395,6.4766,1.1416,3.043,3.2891,4.5645,6.4434,4.5645,2.2373,0,3.8262-.6045,4.7656-1.8125s1.5098-2.7734,1.7119-4.6982h9.7646c-.2236,2.9092-1.2744,5.6602-3.1543,8.2559-2.998,4.1836-7.4385,6.2754-13.3223,6.2754s-10.2139-1.7451-12.9873-5.2354c-2.7744-3.4902-4.1611-8.0205-4.1611-13.5908,0-6.2871,1.5322-11.1753,4.5977-14.6655,3.0645-3.4897,7.293-5.2349,12.6846-5.2349,4.5859,0,8.3398,1.0293,11.2588,3.0874,2.9199,2.0586,4.6484,5.6938,5.1855,10.9067Z" style="stroke-width:0px;"/><path d="m711.3448,90.4263l7.5498-26.981h10.1689l-12.5508,35.9741c-2.417,6.9355-4.3291,11.2363-5.7393,12.9033-1.4092,1.667-4.2275,2.5-8.4561,2.5-.8506,0-1.5332-.0049-2.0469-.0166-.5156-.0117-1.2871-.0498-2.3164-.1172v-7.6514l1.209.0674c.9395.0439,1.834.0107,2.6846-.1006.8496-.1123,1.5654-.3691,2.1475-.7725.5586-.3799,1.0791-1.1738,1.5605-2.3828.4805-1.208.6758-1.9463.5869-2.2148l-13.4229-38.189h10.6377l7.9873,26.981Z" style="stroke-width:0px;"/><polygon points="116.6355 0 94.4688 0 126.898 99.5466 149.0647 99.5466 116.6355 0" style="stroke-width:0px;"/><path d="m7.856,33.1432c5.146-6.5581,13.981-9.8374,26.5063-9.8374,8.1519,0,15.3931,1.6172,21.7236,4.8506,6.3301,3.2339,9.4961,9.3364,9.4961,18.3081v34.1577c0,2.3682.0449,5.2373.1367,8.6074.1362,2.5508.5229,4.2813,1.1611,5.1914.6372.9121,1.5938,1.6631,2.8691,2.2549v2.8691h-21.1772c-.5928-1.5029-1.0024-2.9141-1.23-4.2354-.2285-1.3203-.4097-2.8232-.5464-4.5088-2.688,2.915-5.7842,5.3965-9.291,7.4463-4.1904,2.4131-8.9268,3.6201-14.2095,3.6201-6.7407,0-12.3081-1.9238-16.7026-5.7725-4.3955-3.8477-6.5923-9.3008-6.5923-16.3613,0-9.1538,3.5288-15.7803,10.5884-19.8794,3.8706-2.231,9.5645-3.8257,17.0791-4.7817l6.6265-.8198c3.5972-.4551,6.1704-1.0249,7.7192-1.708,2.7773-1.1836,4.1675-3.0283,4.1675-5.5337,0-3.0503-1.0591-5.1577-3.1768-6.3188-2.1177-1.1616-5.2261-1.7422-9.3252-1.7422-4.6001,0-7.856,1.1392-9.7686,3.416-1.3667,1.6851-2.2783,3.9619-2.7329,6.8311H2.3906c.4102-6.5122,2.231-11.8633,5.4653-16.0537Zm14.4829,52.3286c1.8208,1.5029,4.0527,2.2549,6.6948,2.2549,4.1895,0,8.0493-1.2295,11.5791-3.6895,3.5288-2.459,5.3628-6.9443,5.4995-13.4575v-7.2412c-1.23.7749-2.4712,1.4004-3.7231,1.8784-1.2534.478-2.9717.9224-5.1577,1.332l-4.3721.8198c-4.0991.729-7.0366,1.6172-8.813,2.6646-3.0059,1.7759-4.5088,4.5322-4.5088,8.2656,0,3.3252.9331,5.7158,2.8013,7.1729Z" style="stroke-width:0px;"/><circle cx="88.1708" cy="55.7891" r="10.8168" style="stroke-width:0px;"/></g></g></svg>