<?xml version="1.0" encoding="UTF-8"?>
<svg id="Layer_1" xmlns="http://www.w3.org/2000/svg" version="1.1" viewBox="0 0 288 43.2">
  <!-- Generator: Adobe Illustrator 29.6.1, SVG Export Plug-In . SVG Version: 2.1.1 Build 9)  -->
  <defs>
    <style>
      .st0 {
        fill: #666d72;
      }

      .st1 {
        fill: #f04b31;
      }

      .st2 {
        fill: #0cae56;
      }

      .st3 {
        fill: #fbab1a;
      }

      .st4 {
        fill: #0a82c5;
      }
    </style>
  </defs>
  <g id="Google">
    <g id="_x37_22x237pt">
      <g>
        <path class="st4" d="M19,32.3c-8.1,0-14.9-6.6-14.9-14.7S10.9,2.9,19,2.9s7.7,1.8,10.1,4.1l-2.8,2.8c-1.7-1.6-4.1-2.9-7.2-2.9-5.9,0-10.5,4.8-10.5,10.7s4.6,10.7,10.5,10.7,6-1.5,7.4-2.9,1.9-2.8,2.2-5.1h-9.6v-4h13.5c.1.7.2,1.6.2,2.5,0,3-.8,6.7-3.5,9.4-2.6,2.7-5.9,4.1-10.3,4.1Z"/>
        <path class="st1" d="M53.1,22.9c0,5.5-4.3,9.5-9.5,9.5s-9.5-4-9.5-9.5,4.3-9.5,9.5-9.5c5.2,0,9.5,4,9.5,9.5ZM48.9,22.9c0-3.4-2.5-5.7-5.3-5.7s-5.3,2.3-5.3,5.7,2.5,5.7,5.3,5.7,5.3-2.4,5.3-5.7Z"/>
        <path class="st3" d="M73.7,22.9c0,5.5-4.3,9.5-9.5,9.5s-9.5-4-9.5-9.5,4.3-9.5,9.5-9.5c5.2,0,9.5,4,9.5,9.5ZM69.6,22.9c0-3.4-2.5-5.7-5.3-5.7s-5.3,2.3-5.3,5.7,2.5,5.7,5.3,5.7,5.3-2.4,5.3-5.7Z"/>
        <path class="st4" d="M93.5,14v17c0,7-4.1,9.9-9,9.9s-7.4-3.1-8.4-5.6l3.6-1.5c.6,1.5,2.2,3.4,4.8,3.4s5.1-1.9,5.1-5.6v-1.4h-.1c-.9,1.1-2.7,2.2-5,2.2-4.7,0-9.1-4.1-9.1-9.4s4.3-9.5,9.1-9.5,4.1,1,5,2.1h.1v-1.5h3.9ZM89.9,22.9c0-3.3-2.2-5.8-5.1-5.8s-5.3,2.4-5.3,5.8,2.4,5.7,5.3,5.7c2.8,0,5.1-2.4,5.1-5.7Z"/>
        <path class="st2" d="M100.5,3.9v27.8h-4.2V3.9h4.2Z"/>
        <path class="st1" d="M116.3,26l3.2,2.2c-1,1.5-3.6,4.2-7.9,4.2s-9.3-4.2-9.3-9.5,3.9-9.5,8.8-9.5,7.3,3.9,8.1,6l.4,1.1-12.7,5.2c1,1.9,2.5,2.9,4.6,2.9,2.1,0,3.6-1,4.7-2.6ZM106.4,22.6l8.5-3.5c-.5-1.2-1.9-2-3.5-2s-5.1,1.9-5,5.5Z"/>
      </g>
    </g>
  </g>
  <g id="DeepMind">
    <g>
      <path class="st0" d="M129.9,31.7V5.7h7.9c4,0,7.2,1.2,9.6,3.6,2.4,2.4,3.6,5.5,3.6,9.4s-1.2,7-3.6,9.4c-2.4,2.4-5.6,3.6-9.6,3.6h-7.9ZM133.2,8.9v19.6h4.6c3,0,5.4-.9,7.1-2.6s2.6-4.1,2.6-7.2-.9-5.4-2.6-7.2c-1.7-1.7-4.1-2.6-7.1-2.6h-4.6Z"/>
      <path class="st0" d="M161.8,32.3c-2.6,0-4.8-.9-6.5-2.7-1.7-1.8-2.5-4.1-2.5-6.8s.8-5,2.5-6.8c1.6-1.8,3.7-2.7,6.3-2.7s4.7.9,6.3,2.6c1.6,1.7,2.3,4.1,2.3,7.2v.4h-14c0,1.7.6,3.1,1.7,4.2,1.1,1.1,2.4,1.6,4,1.6s3.8-1.1,5-3.2l3,1.5c-.8,1.5-1.9,2.7-3.3,3.5-1.4.8-3,1.3-4.8,1.3ZM156.5,20.7h10.2c0-1.2-.6-2.3-1.5-3.1-.9-.8-2.1-1.2-3.6-1.2s-2.3.4-3.2,1.2c-.9.8-1.5,1.8-1.8,3.1Z"/>
      <path class="st0" d="M180.7,32.3c-2.6,0-4.8-.9-6.5-2.7-1.7-1.8-2.5-4.1-2.5-6.8s.8-5,2.5-6.8c1.6-1.8,3.7-2.7,6.3-2.7s4.7.9,6.3,2.6c1.6,1.7,2.3,4.1,2.3,7.2v.4h-14c0,1.7.6,3.1,1.7,4.2,1.1,1.1,2.4,1.6,4,1.6s3.8-1.1,5-3.2l3,1.5c-.8,1.5-1.9,2.7-3.3,3.5-1.4.8-3,1.3-4.8,1.3ZM175.4,20.7h10.2c0-1.2-.6-2.3-1.5-3.1-.9-.8-2.1-1.2-3.6-1.2s-2.3.4-3.2,1.2c-.9.8-1.5,1.8-1.8,3.1Z"/>
      <path class="st0" d="M200.9,32.3c-1.3,0-2.5-.3-3.6-.8s-1.9-1.3-2.5-2.2h-.1v2.5c.1,0,.1,7.8.1,7.8h-3.3V13.9h3.2v2.5h.1c.6-.9,1.4-1.7,2.5-2.2s2.3-.8,3.6-.8c2.3,0,4.3.9,6,2.8,1.7,1.9,2.5,4.1,2.5,6.7s-.8,4.9-2.5,6.7c-1.6,1.8-3.6,2.8-6,2.8ZM200.3,29.3c1.6,0,2.9-.6,4-1.8,1.1-1.2,1.6-2.7,1.6-4.6s-.5-3.4-1.6-4.6c-1.1-1.2-2.4-1.8-4-1.8s-3,.6-4.1,1.8c-1.1,1.2-1.6,2.7-1.6,4.6s.5,3.4,1.6,4.6c1.1,1.2,2.4,1.8,4.1,1.8Z"/>
      <path class="st0" d="M215.8,31.7h-3.3V5.7h3.3l9,15.8h.1l9-15.8h3.3v26h-3.3V12c.1,0,0,0,0,0l-8.1,14.3h-2l-8.1-14.3h-.1v4.4c.1,0,.1,15.4.1,15.4h0Z"/>
      <path class="st0" d="M245.6,7.8c0,.7-.2,1.2-.7,1.7-.5.5-1,.7-1.7.7s-1.2-.2-1.7-.7c-.5-.5-.7-1-.7-1.7s.2-1.2.7-1.7c.5-.5,1-.7,1.7-.7s1.2.2,1.7.7.7,1,.7,1.7ZM244.9,13.9v17.8h-3.3V13.9h3.3Z"/>
      <path class="st0" d="M248.4,13.9h3.2v2.5h.1c.5-.9,1.3-1.6,2.3-2.2,1.1-.6,2.1-.9,3.3-.9,2.2,0,3.9.6,5,1.9s1.8,3,1.8,5.3v11.2h-3.3v-11c0-2.9-1.5-4.4-4.4-4.4s-2.4.5-3.3,1.6-1.3,2.4-1.3,3.9v9.8h-3.3V13.9Z"/>
      <path class="st0" d="M274.9,32.3c-2.3,0-4.3-.9-6-2.8-1.6-1.9-2.5-4.1-2.5-6.7s.8-4.9,2.5-6.7c1.7-1.8,3.7-2.8,6-2.8s2.5.3,3.6.8c1.1.6,1.9,1.3,2.5,2.2h.1v-2.5c-.1,0-.1-8.2-.1-8.2h3.3v26h-3.2v-2.5h-.1c-.6.9-1.4,1.7-2.5,2.2-1.1.6-2.3.8-3.6.8ZM275.4,29.3c1.6,0,3-.6,4-1.8,1.1-1.2,1.6-2.7,1.6-4.6s-.5-3.4-1.6-4.6c-1.1-1.2-2.4-1.8-4-1.8s-2.9.6-4,1.8c-1.1,1.2-1.6,2.7-1.6,4.6s.5,3.4,1.6,4.6c1.1,1.2,2.4,1.8,4,1.8Z"/>
    </g>
  </g>
</svg>