<?xml version="1.0" encoding="UTF-8"?>
<svg id="a" data-name="Logo" xmlns="http://www.w3.org/2000/svg" width="1175.235" height="412.161" viewBox="0 0 1175.235 412.161">
  <g>
    <path d="M348.704,191.925l-.007-.076h-155.914v55.157h124.497c5.165,0,8.9,4.944,7.49,9.913-16.682,58.766-71.553,101.469-136.089,99.586-73.455-2.143-132.562-62.654-133.08-136.138-.537-76.22,61.088-138.176,137.183-138.176V26.595C86.235,26.595-.124,113.031,0,219.608c.124,106.746,86.038,192.554,192.784,192.553,102.836,0,186.836-80.527,192.453-181.959,0-20.821-17.474-38.233-36.533-38.277Z" fill="#2a0039" stroke-width="0"/>
    <path d="M304.39,166.265c29.85,0,56.012-15.741,70.674-39.366l-35.784-22.184c-7.234,11.669-20.151,19.445-34.891,19.445-22.659,0-41.028-18.369-41.028-41.028s18.369-41.028,41.028-41.028c14.725,0,27.631,7.761,34.869,19.411l35.783-22.184C360.377,15.726,334.225,0,304.39,0c-45.913,0-83.132,37.219-83.132,83.132s37.22,83.132,83.132,83.132Z" fill="#2a0039" stroke-width="0"/>
  </g>
  <g>
    <g>
      <path d="M531.023,201.819c-50.256,0-91.168-40.911-90.915-91.168,0-50.255,41.164-91.167,91.42-90.915,25.002,0,47.478,10.354,63.893,26.769l-14.647,14.648c-13.385-13.385-31.063-20.709-49.751-20.709-37.881,0-70.459,31.062-69.954,70.964.505,38.387,30.81,69.197,69.701,69.702,31.063,0,60.358-20.962,68.439-53.539,1.01-4.798-1.01-6.313-4.293-6.313h-63.893v-20.961h75.005c9.344,0,15.152,6.565,15.152,16.163,0,43.689-39.144,85.358-90.158,85.358Z" fill="#2a0039" stroke-width="0"/>
      <path d="M690.625,42.971h-36.366v57.327h35.356v20.708h-35.356v57.327h36.366v20.709h-57.327V22.262h57.327v20.709Z" fill="#2a0039" stroke-width="0"/>
      <path d="M708.551,22.262h20.456l30.305,98.743c.505,1.515,1.263,2.02,2.273,1.768,1.01-.253,1.01-1.768,1.01-2.779l-.758-97.733h19.951v176.779h-20.709l-30.052-98.997c-.253-1.262-.758-2.526-2.02-2.272-1.515.252-1.263,2.272-1.263,3.536l.758,97.733h-19.951V22.262Z" fill="#2a0039" stroke-width="0"/>
      <path d="M859.316,42.971h-36.366v57.327h35.356v20.708h-35.356v57.327h36.366v20.709h-57.327V22.262h57.327v20.709Z" fill="#2a0039" stroke-width="0"/>
      <path d="M924.214,121.005h-26.012v78.036h-20.961V22.262h41.669c19.698,0,31.315,12.375,31.315,31.063v38.134c0,10.354-3.536,15.152-10.354,19.192,7.324,4.041,10.354,9.597,10.354,18.941v69.449h-20.961v-72.733c0-3.03-2.272-5.303-5.051-5.303ZM929.265,94.993v-46.72c0-3.031-2.272-5.303-5.051-5.303h-26.012v57.327h26.012c2.778,0,5.051-2.526,5.051-5.304Z" fill="#2a0039" stroke-width="0"/>
      <path d="M1006.033,19.484c22.476,0,36.366,16.92,36.366,36.618v142.938h-20.961v-78.036h-31.063v78.036h-20.961V56.103c0-20.961,15.152-36.618,36.618-36.618ZM1011.084,40.445h-10.354c-5.808,0-10.354,4.546-10.354,10.354v49.498h31.063v-49.498c0-5.808-4.546-10.354-10.354-10.354Z" fill="#2a0039" stroke-width="0"/>
      <path d="M1119.168,199.041h-21.719c-23.739,0-35.861-14.395-35.861-35.608V22.262h20.961v150.767c0,2.778,2.526,5.303,5.304,5.303h31.315v20.709Z" fill="#2a0039" stroke-width="0"/>
    </g>
    <g>
      <path d="M531.274,406.619c-50.256,0-91.168-40.659-91.168-91.168s40.912-90.915,91.168-90.915c32.073,0,60.105,16.668,76.52,41.669l-17.425,11.365c-9.344-14.9-28.538-32.325-59.095-32.325-38.639,0-70.206,31.567-70.206,70.206,0,38.892,31.315,70.46,70.206,70.46,29.042,0,48.741-17.173,58.842-32.073l17.425,11.365c-16.163,25.002-44.448,41.416-76.268,41.416Z" fill="#2a0039" stroke-width="0"/>
      <path d="M656.782,224.284c22.477,0,36.366,16.92,36.366,36.618v142.938h-20.961v-78.036h-31.063v78.036h-20.961v-142.938c0-20.961,15.152-36.618,36.618-36.618ZM661.833,245.245h-10.354c-5.808,0-10.354,4.546-10.354,10.354v49.498h31.063v-49.498c0-5.808-4.546-10.354-10.354-10.354Z" fill="#2a0039" stroke-width="0"/>
      <path d="M776.233,247.771h-26.012v156.07h-20.961v-156.07h-26.011v-20.709h72.985v20.709Z" fill="#2a0039" stroke-width="0"/>
      <path d="M822.953,224.284c22.477,0,36.366,16.92,36.366,36.618v142.938h-20.961v-78.036h-31.063v78.036h-20.961v-142.938c0-20.961,15.152-36.618,36.618-36.618ZM828.004,245.245h-10.354c-5.808,0-10.354,4.546-10.354,10.354v49.498h31.063v-49.498c0-5.808-4.546-10.354-10.354-10.354Z" fill="#2a0039" stroke-width="0"/>
      <path d="M936.088,403.841h-21.719c-23.739,0-35.861-14.395-35.861-35.608v-141.171h20.961v150.767c0,2.778,2.526,5.303,5.304,5.303h31.315v20.709Z" fill="#2a0039" stroke-width="0"/>
      <path d="M978.51,325.805v77.784h-20.961v-77.784c-16.415,0-26.012-11.617-26.012-26.012v-72.731h20.961v72.731c0,2.779,2.273,5.304,5.051,5.304h20.961c2.778,0,5.051-2.526,5.051-5.304v-72.731h20.961v72.731c0,14.143-9.092,26.012-26.012,26.012Z" fill="#2a0039" stroke-width="0"/>
      <path d="M1092.91,340.453v30.558c0,20.709-14.395,35.608-35.356,35.608h-2.02c-20.961,0-35.356-14.899-35.356-35.608v-21.719h20.708v31.315c0,2.779,2.273,5.304,5.304,5.304h20.708c3.031,0,5.304-2.526,5.304-5.304v-49.75c0-2.778-2.273-5.051-5.304-5.051h-11.364c-20.709,0-35.356-15.152-35.356-35.608v-30.305c0-20.456,14.647-35.608,35.356-35.608h2.02c20.709,0,35.356,15.404,35.356,35.608v21.971h-20.708v-31.567c0-2.779-2.273-5.051-5.304-5.051h-20.708c-3.031,0-5.304,2.272-5.304,5.051v49.497c0,2.779,2.273,5.051,5.304,5.051h11.112c21.466,0,35.609,14.647,35.609,35.608Z" fill="#2a0039" stroke-width="0"/>
      <path d="M1175.235,247.771h-26.012v156.07h-20.961v-156.07h-26.011v-20.709h72.985v20.709Z" fill="#2a0039" stroke-width="0"/>
    </g>
  </g>
</svg>