<?xml version="1.0" encoding="UTF-8" standalone="no"?>
<!DOCTYPE svg PUBLIC "-//W3C//DTD SVG 1.1//EN" "http://www.w3.org/Graphics/SVG/1.1/DTD/svg11.dtd">
<svg xmlns="http://www.w3.org/2000/svg" xmlns:xl="http://www.w3.org/1999/xlink" version="1.1" xmlns:dc="http://purl.org/dc/elements/1.1/" viewBox="634.9999 499.1126 477.3223 539.7752" width="477.3223" height="539.7752">
  <defs/>
  <metadata> Produced by OmniGraffle 8.0\n2024-06-18 20:41:29 +0000</metadata>
  <g id="Canvas_1" stroke-opacity="1" stroke="none" fill="none" stroke-dasharray="none" fill-opacity="1">
    <title>Canvas 1</title>
    <g id="Canvas_1_Layer_1">
      <title>Layer 1</title>
      <g id="Graphic_34">
        <path d="M 643.9785 625.5156 L 853.6055 504.4866 C 859.6945 500.9706 866.6295 499.1126 873.6605 499.1126 C 880.6915 499.1126 887.6275 500.9706 893.7165 504.4866 L 977.9295 553.1076 L 864.3705 618.6706 L 882.3265 629.0366 L 995.8855 563.4736 L 1103.3435 625.5156 L 873.6605 758.1206 Z" fill="#49b6f9"/>
      </g>
      <g id="Graphic_35">
        <path d="M 707.5649 767.2578 L 780.8279 809.5548 L 780.8279 788.8198 L 707.5649 746.5228 Z M 749.4059 972.3328 L 749.4059 878.9148 L 731.4499 868.5478 L 731.4499 961.9658 L 655.0549 917.8608 C 642.6849 910.7168 634.9999 897.4058 634.9999 883.1228 L 634.9999 641.0658 L 864.6819 773.6728 L 864.6819 894.0088 L 794.3699 853.4138 L 794.3699 874.1478 L 864.6819 914.7428 L 864.6819 1038.8878 Z" fill="#1b3a9e"/>
      </g>
      <g id="Graphic_36">
        <path d="M 882.6392 773.6738 L 967.2702 724.8118 L 967.2702 905.7138 L 1112.3222 821.9678 L 1112.3222 883.1228 C 1112.3222 897.4058 1104.6372 910.7178 1092.2662 917.8608 L 882.6392 1038.8878 Z" fill="#1e77e0"/>
      </g>
      <g id="Graphic_37">
        <path d="M 985.2261 714.4453 L 1112.3221 641.0653 L 1112.3221 801.2343 L 985.2261 874.6133 Z" fill="#83dcff"/>
      </g>
    </g>
  </g>
</svg>
