<?xml version="1.0" encoding="UTF-8" standalone="no"?>
<!DOCTYPE svg PUBLIC "-//W3C//DTD SVG 1.1//EN" "http://www.w3.org/Graphics/SVG/1.1/DTD/svg11.dtd">
<svg width="100%" height="100%" viewBox="0 0 919 1026" version="1.1" xmlns="http://www.w3.org/2000/svg" xmlns:xlink="http://www.w3.org/1999/xlink" xml:space="preserve" xmlns:serif="http://www.serif.com/" style="fill-rule:evenodd;clip-rule:evenodd;stroke-linejoin:round;stroke-miterlimit:2;">
    <g transform="matrix(1,0,0,1,-26.4594,209.504)">
        <path d="M594.7,149.9C551,146.7 514,174.3 493.4,174.3C472.4,174.3 440.1,150.6 405.9,151.3C360.9,152 319.5,177.5 296.3,217.7C249.6,298.8 284.4,419 329.9,484.8C352.1,517 378.7,553.2 413.6,551.8C447.2,550.5 459.9,530.1 500.4,530.1C540.9,530.1 552.4,551.8 587.9,551.1C624,550.4 646.9,518.3 669,486C684.8,462.8 697.2,437.4 705.7,410.6C704.9,410.3 635.3,383.6 634.6,303.4C634,236.3 689.4,204.1 691.9,202.5C660.3,156.3 611.8,151.2 594.7,149.9Z" style="fill-rule:nonzero;"/>
        <path d="M567.7,106.5C586.2,84.1 598.7,52.9 595.3,21.9C568.6,23 536.3,39.7 517.2,62C500.1,81.8 485,113.6 489.1,144C518.9,146.3 549.2,128.9 567.7,106.5Z" style="fill-rule:nonzero;"/>
    </g>
</svg>
