<?xml version="1.0" encoding="UTF-8" standalone="no"?>
<svg
   width="331.97"
   height="86.189003"
   viewBox="0 0 331.97 86.189003"
   version="1.1"
   xml:space="preserve"
   style="clip-rule:evenodd;fill-rule:evenodd;stroke-linejoin:round;stroke-miterlimit:2"
   id="svg63"
   sodipodi:docname="SonyAI_Logo_Pink clean.svg"
   inkscape:version="1.3.1 (91b66b0, 2023-11-16)"
   xmlns:inkscape="http://www.inkscape.org/namespaces/inkscape"
   xmlns:sodipodi="http://sodipodi.sourceforge.net/DTD/sodipodi-0.dtd"
   xmlns="http://www.w3.org/2000/svg"
   xmlns:svg="http://www.w3.org/2000/svg"><defs
   id="defs63">
        
        
        
        
        
        
        
        
        
        
        
        
        
        
        
        
        
        
        
        
        
        
        
        
        
        
        
        
        
        
        
        
        
        
        
        
        
        
        
        
        
        
        
        
        
        
        
        
        
        
        
        
        
        
        
        
        
        
        
        
        
        
        
    </defs><sodipodi:namedview
   id="namedview63"
   pagecolor="#ffffff"
   bordercolor="#000000"
   borderopacity="0.25"
   inkscape:showpageshadow="2"
   inkscape:pageopacity="0.0"
   inkscape:pagecheckerboard="0"
   inkscape:deskcolor="#d1d1d1"
   inkscape:zoom="1.0498812"
   inkscape:cx="165.73303"
   inkscape:cy="211.45249"
   inkscape:window-width="1392"
   inkscape:window-height="1027"
   inkscape:window-x="54"
   inkscape:window-y="25"
   inkscape:window-maximized="0"
   inkscape:current-layer="svg63" />
    <g
   transform="translate(41.226,66.621)"
   id="g1">
            <path
   d="m 0,-64.185 -2.349,10.958 c -4.696,-1.739 -9.74,-2.436 -14.35,-2.436 -5.392,0 -10.611,1.567 -10.611,7.046 0,4.697 3.827,6.957 12.612,10.61 11.045,4.524 18.525,9.046 18.525,20.786 0,13.395 -11.568,19.657 -24.701,19.657 -6.087,0 -13.741,-1.044 -20.352,-3.393 l 2.436,-11.133 c 6.001,2.437 12.611,3.568 17.482,3.568 7.392,0 11.479,-2.611 11.479,-7.742 0,-4.958 -4,-7.392 -13.131,-11.045 -10.612,-4.262 -18.004,-9.654 -18.004,-19.917 0,-13.916 12.089,-19.395 23.483,-19.395 6.436,0 12.61,0.87 17.481,2.436"
   style="fill:#d6007b;fill-rule:nonzero"
   id="path1" />
        </g><g
   transform="translate(90.366,43.312)"
   id="g2">
            <path
   d="m 0,-0.174 c 0,-9.306 -3.914,-15.742 -11.916,-15.742 -8.088,0 -11.915,6.436 -11.915,15.742 0,9.653 3.914,15.917 11.915,15.917 C -3.914,15.743 0,9.479 0,-0.174 m 13.219,0 c 0,16.09 -10.002,25.918 -25.135,25.918 -15.394,0 -25.221,-9.828 -25.221,-25.918 0,-16.09 9.827,-25.744 25.221,-25.744 15.308,0 25.135,9.654 25.135,25.744"
   style="fill:#d6007b;fill-rule:nonzero"
   id="path2" />
        </g><g
   transform="translate(114.459,66.794)"
   id="g3">
            <path
   d="m 0,-48.269 h 13.046 v 6.61 h 0.173 c 2.523,-5.044 8.611,-7.741 14.96,-7.741 11.132,0 18.264,7.132 18.264,18.004 V 1.131 H 33.136 v -27.569 c 0,-8.09 -1.826,-12.959 -9.132,-12.959 -5.131,0 -10.698,3.652 -10.698,13.741 V 1.131 H 0 Z"
   style="fill:#d6007b;fill-rule:nonzero"
   id="path3" />
        </g><g
   transform="translate(181.777,86.189)"
   id="g4">
            <path
   d="m 0,-67.664 12.002,33.138 h 0.174 L 24.004,-67.664 H 38.007 L 11.22,0 H -2.87 l 8.002,-19.394 -19.484,-48.27 z"
   style="fill:#d6007b;fill-rule:nonzero"
   id="path4" />
        </g><g
   transform="translate(274.317,57.315)"
   id="g5">
            <path
   d="m 0,-45.573 -9.741,28.874 H 9.655 Z m -12.871,39.921 -5.828,16.263 H -33.223 L -9.132,-56.184 H 9.567 L 33.485,10.611 H 18.787 L 12.872,-5.652 Z"
   style="fill:#d6007b;fill-rule:nonzero"
   id="path5" />
        </g><g
   transform="translate(-131.949,-385.69)"
   id="g6">
            <rect
   x="450.26501"
   y="386.82001"
   width="13.654"
   height="66.794998"
   style="fill:#d6007b"
   id="rect5" />
        </g>
</svg>
