<?xml version="1.0" encoding="UTF-8" standalone="no"?>
<!DOCTYPE svg PUBLIC "-//W3C//DTD SVG 1.1//EN" "http://www.w3.org/Graphics/SVG/1.1/DTD/svg11.dtd">
<svg xmlns="http://www.w3.org/2000/svg" xmlns:xl="http://www.w3.org/1999/xlink" version="1.1" xmlns:dc="http://purl.org/dc/elements/1.1/" viewBox="634.9999 499.1126 1289.9996 539.7752" width="1289.9996" height="539.7752">
  <defs/>
  <metadata> Produced by OmniGraffle 8.0\n2024-06-18 20:41:29 +0000</metadata>
  <g id="Canvas_1" stroke-opacity="1" stroke="none" fill="none" stroke-dasharray="none" fill-opacity="1">
    <title>Canvas 1</title>
    <g id="Canvas_1_Layer_1">
      <title>Layer 1</title>
      <g id="Graphic_3">
        <path d="M 1207.4619 615.2041 L 1213.1079 615.2041 C 1223.3759 615.2041 1226.6519 610.3851 1226.6519 597.6821 L 1226.6519 593.1391 C 1226.6519 583.3481 1224.3309 577.4301 1213.4119 577.4301 L 1207.4619 577.4301 Z M 1207.4619 628.3581 L 1207.4619 681.9631 L 1191.6789 681.9631 L 1191.6789 564.2761 L 1214.8939 564.2761 C 1232.7059 564.2761 1242.4879 571.6401 1242.4879 592.0991 L 1242.4879 596.9591 C 1242.4879 614.1581 1235.8229 619.5801 1230.5079 621.6051 C 1237.6239 624.6361 1241.3599 629.8671 1241.3599 645.7411 C 1241.3599 655.7121 1241.1839 674.7051 1242.4699 681.9631 L 1227.1829 681.9631 C 1225.6489 674.7581 1225.9479 655.2381 1225.9479 646.8161 C 1225.9479 632.0901 1223.9769 628.3581 1212.9689 628.3581 Z" fill="#1b3a9e"/>
      </g>
      <g id="Graphic_4">
        <path d="M 1288.0625 628.0293 L 1288.0625 617.9033 C 1288.0625 609.5003 1286.3705 603.3963 1278.8185 603.3963 C 1271.8665 603.3963 1269.2925 608.7443 1269.2925 617.9563 L 1269.2925 628.0293 Z M 1269.1685 640.5653 L 1269.1685 654.4973 C 1269.1685 662.3333 1270.8585 669.9713 1278.5725 669.9713 C 1286.3375 669.9713 1287.5165 663.3133 1287.5165 655.9013 L 1287.5165 655.3383 L 1302.9285 655.3383 L 1302.9285 655.8483 C 1302.9285 665.7643 1300.7265 683.3723 1278.8375 683.3723 C 1257.5095 683.3723 1253.7565 669.8723 1253.7565 651.5313 L 1253.7565 620.1633 C 1253.7565 607.2173 1258.0375 589.9943 1278.8715 589.9943 C 1297.4275 589.9943 1303.2275 602.9973 1303.2275 620.0923 L 1303.2275 640.5653 Z" fill="#1b3a9e"/>
      </g>
      <g id="Graphic_5">
        <path d="M 1315.942 578.004 L 1331.724 578.004 L 1331.724 559.115 L 1315.942 559.115 Z M 1315.818 681.963 L 1331.601 681.963 L 1331.601 591.404 L 1315.818 591.404 Z" fill="#1b3a9e"/>
      </g>
      <g id="Graphic_6">
        <path d="M 1347.5273 619.1895 C 1347.5273 600.8835 1347.5273 595.6675 1347.3513 591.4045 L 1362.4113 591.4045 C 1362.7103 593.4655 1363.0103 596.8495 1363.0103 599.9825 C 1365.6513 594.1535 1370.7253 589.9945 1379.6583 589.9945 C 1390.2153 589.9945 1397.9493 596.2525 1397.9493 613.1665 L 1397.9493 681.9625 L 1382.1663 681.9625 L 1382.1663 616.1815 C 1382.1663 607.7615 1379.2943 604.2425 1373.6623 604.2425 C 1366.7583 604.2425 1363.3093 607.7995 1363.3093 622.1115 L 1363.3093 681.9625 L 1347.5273 681.9625 Z" fill="#1b3a9e"/>
      </g>
      <g id="Graphic_7">
        <path d="M 1415.3325 681.9629 L 1415.3325 605.2989 L 1406.1535 605.2989 L 1406.1535 591.4039 L 1415.3325 591.4039 L 1415.3325 580.8969 C 1415.3325 569.0179 1420.0565 558.2869 1435.6885 558.2869 C 1438.1385 558.2869 1440.6755 558.4629 1442.2265 558.9399 L 1442.2265 573.1149 C 1440.7655 572.8869 1439.8485 572.8339 1438.5815 572.8339 C 1432.5215 572.8339 1431.1125 576.4419 1431.1125 582.7829 L 1431.1125 591.4039 L 1442.3525 591.4039 L 1442.3525 605.2989 L 1431.1125 605.2989 L 1431.1125 681.9629 Z" fill="#1b3a9e"/>
      </g>
      <g id="Graphic_8">
        <path d="M 1464.0664 617.5713 L 1464.0664 655.2323 C 1464.0664 663.6123 1466.7424 669.3533 1473.6454 669.3533 C 1480.0914 669.3533 1483.0304 664.7393 1483.0304 654.9853 L 1483.0304 617.4483 C 1483.0304 609.6653 1480.7074 604.0133 1473.5744 604.0133 C 1466.9544 604.0133 1464.0664 608.7853 1464.0664 617.5713 M 1498.8634 618.3303 L 1498.8634 654.4233 C 1498.8634 673.9253 1489.3674 683.3723 1473.3464 683.3723 C 1456.9364 683.3723 1448.2314 673.8373 1448.2314 654.6863 L 1448.2314 617.7653 C 1448.2314 599.0663 1458.5614 589.9943 1473.8744 589.9943 C 1489.7864 589.9943 1498.8634 600.0033 1498.8634 618.3303" fill="#1b3a9e"/>
      </g>
      <g id="Graphic_9">
        <path d="M 1512.0537 622.1475 C 1512.0537 607.2945 1512.1777 600.1455 1511.8777 591.4045 L 1526.8647 591.4045 C 1527.0427 593.4115 1527.3427 600.4825 1527.3427 605.8535 C 1530.8317 594.0635 1538.7247 590.2065 1546.9357 590.1005 L 1546.9357 609.5675 C 1536.2437 609.6195 1527.8357 613.8385 1527.8357 631.4795 L 1527.8357 681.9625 L 1512.0537 681.9625 Z" fill="#1b3a9e"/>
      </g>
      <g id="Graphic_10">
        <path d="M 1601.7515 652.501 L 1601.7515 653.734 C 1601.7515 669.787 1597.6815 683.372 1577.6615 683.372 C 1558.1165 683.372 1554.0985 670.118 1554.0985 651.565 L 1554.0985 618.788 C 1554.0985 603.778 1559.2775 589.994 1578.4905 589.994 C 1599.1305 589.994 1601.7515 605.012 1601.7515 616.585 L 1601.7515 620.09 L 1586.1655 620.09 L 1586.1655 616.564 C 1586.1655 609.08 1584.9515 603.397 1578.1915 603.397 C 1572.1515 603.397 1569.9335 608.009 1569.9335 616.934 L 1569.9335 656.012 C 1569.9335 663.09 1571.2535 669.972 1578.0855 669.972 C 1584.4405 669.972 1586.1655 665.285 1586.1655 656.204 L 1586.1655 652.501 Z" fill="#1b3a9e"/>
      </g>
      <g id="Graphic_11">
        <path d="M 1646.1826 628.0293 L 1646.1826 617.9033 C 1646.1826 609.5003 1644.4906 603.3963 1636.9396 603.3963 C 1629.9876 603.3963 1627.4126 608.7443 1627.4126 617.9563 L 1627.4126 628.0293 Z M 1627.2896 640.5653 L 1627.2896 654.4973 C 1627.2896 662.3333 1628.9796 669.9713 1636.6926 669.9713 C 1644.4586 669.9713 1645.6366 663.3133 1645.6366 655.9013 L 1645.6366 655.3383 L 1661.0486 655.3383 L 1661.0486 655.8483 C 1661.0486 665.7643 1658.8466 683.3723 1636.9576 683.3723 C 1615.6296 683.3723 1611.8776 669.8723 1611.8776 651.5313 L 1611.8776 620.1633 C 1611.8776 607.2173 1616.1576 589.9943 1636.9926 589.9943 C 1655.5476 589.9943 1661.3486 602.9973 1661.3486 620.0923 L 1661.3486 640.5653 Z" fill="#1b3a9e"/>
      </g>
      <g id="Graphic_12">
        <path d="M 1673.9409 617.5859 C 1673.9409 600.2279 1673.9409 595.6139 1673.7649 591.4039 L 1688.825 591.4039 C 1689.3 594.1179 1689.3 596.5299 1689.424 599.5959 C 1692.401 593.4819 1697.671 589.9939 1705.158 589.9939 C 1712.365 589.9939 1717.35 593.0789 1719.481 600.0539 C 1722.513 594.8049 1727.216 589.9939 1736.591 589.9939 C 1746.019 589.9939 1754.123 594.5429 1754.123 612.1449 L 1754.123 681.9629 L 1738.342 681.9629 L 1738.342 615.1409 C 1738.342 608.5009 1736.792 604.2419 1730.894 604.2419 C 1723.658 604.2419 1721.985 610.2609 1721.985 619.5439 L 1721.985 681.9629 L 1706.081 681.9629 L 1706.081 615.7039 C 1706.081 606.8279 1703.614 604.2419 1698.525 604.2419 C 1691.324 604.2419 1689.723 610.3659 1689.723 619.6989 L 1689.723 681.9629 L 1673.9409 681.9629 Z" fill="#1b3a9e"/>
      </g>
      <g id="Graphic_13">
        <path d="M 1801.7334 628.0293 L 1801.7334 617.9033 C 1801.7334 609.5003 1800.0414 603.3963 1792.4894 603.3963 C 1785.5374 603.3963 1782.9634 608.7443 1782.9634 617.9563 L 1782.9634 628.0293 Z M 1782.8394 640.5653 L 1782.8394 654.4973 C 1782.8394 662.3333 1784.5294 669.9713 1792.2434 669.9713 C 1800.0084 669.9713 1801.1864 663.3133 1801.1864 655.9013 L 1801.1864 655.3383 L 1816.5984 655.3383 L 1816.5984 655.8483 C 1816.5984 665.7643 1814.3974 683.3723 1792.5084 683.3723 C 1771.1804 683.3723 1767.4274 669.8723 1767.4274 651.5313 L 1767.4274 620.1633 C 1767.4274 607.2173 1771.7084 589.9943 1792.5424 589.9943 C 1811.0974 589.9943 1816.8984 602.9973 1816.8984 620.0923 L 1816.8984 640.5653 Z" fill="#1b3a9e"/>
      </g>
      <g id="Graphic_14">
        <path d="M 1829.4912 619.1895 C 1829.4912 600.8835 1829.4912 595.6675 1829.3152 591.4045 L 1844.3752 591.4045 C 1844.6752 593.4655 1844.9742 596.8495 1844.9742 599.9825 C 1847.6152 594.1535 1852.6892 589.9945 1861.6232 589.9945 C 1872.1792 589.9945 1879.9132 596.2525 1879.9132 613.1665 L 1879.9132 681.9625 L 1864.1302 681.9625 L 1864.1302 616.1815 C 1864.1302 607.7615 1861.2592 604.2425 1855.6262 604.2425 C 1848.7222 604.2425 1845.2742 607.7995 1845.2742 622.1115 L 1845.2742 681.9625 L 1829.4912 681.9625 Z" fill="#1b3a9e"/>
      </g>
      <g id="Graphic_15">
        <path d="M 1887.3955 591.4043 L 1897.3315 591.4043 L 1897.3315 569.4533 L 1913.0595 569.4533 L 1913.0595 591.4043 L 1924.9995 591.4043 L 1924.9995 605.2993 L 1913.0595 605.2993 L 1913.0595 661.8713 C 1913.0595 666.3093 1913.7455 670.1663 1919.3125 670.1663 C 1920.9505 670.1663 1923.4515 669.9903 1924.5425 669.6363 L 1924.5425 681.6443 C 1921.6365 682.9673 1917.2985 683.2663 1914.0405 683.2663 C 1903.7795 683.2663 1897.3315 679.6203 1897.3315 664.7103 L 1897.3315 605.2993 L 1887.3955 605.2993 Z" fill="#1b3a9e"/>
      </g>
      <g id="Graphic_16">
        <path d="M 1191.6792 713.4961 L 1207.4622 713.4961 L 1207.4622 817.0411 L 1237.0592 817.0411 L 1235.5782 831.1821 L 1191.6792 831.1821 Z" fill="#1e77e0"/>
      </g>
      <g id="Graphic_17">
        <path d="M 1278.5479 777.249 L 1278.5479 767.123 C 1278.5479 758.72 1276.8559 752.615 1269.3049 752.615 C 1262.3529 752.615 1259.7779 757.964 1259.7779 767.176 L 1259.7779 777.249 Z M 1259.6549 789.785 L 1259.6549 803.718 C 1259.6549 811.552 1261.3449 819.19 1269.0579 819.19 C 1276.8239 819.19 1278.0019 812.531 1278.0019 805.12 L 1278.0019 804.558 L 1293.4139 804.558 L 1293.4139 805.067 C 1293.4139 814.984 1291.2119 832.591 1269.3229 832.591 C 1247.9949 832.591 1244.2449 819.091 1244.2449 800.75 L 1244.2449 769.382 C 1244.2449 756.437 1248.5229 739.214 1269.3579 739.214 C 1287.9129 739.214 1293.7129 752.217 1293.7129 769.311 L 1293.7129 789.785 Z" fill="#1e77e0"/>
      </g>
      <g id="Graphic_18">
        <path d="M 1335.8896 789.1514 L 1332.2996 789.1514 C 1323.2296 789.1514 1317.5246 792.7594 1317.5246 804.7884 L 1317.5246 806.2494 C 1317.5246 813.3474 1319.9186 818.7144 1326.1526 818.7144 C 1333.1406 818.7144 1335.8896 813.5064 1335.8896 800.7364 Z M 1351.2996 813.8384 C 1351.2996 819.7394 1351.3526 828.0614 1351.6536 831.1814 L 1337.1586 831.1814 C 1336.7536 829.2794 1336.2076 825.6324 1336.0836 824.2424 C 1333.0706 830.2654 1327.8926 832.5904 1321.1956 832.5904 C 1307.8056 832.5904 1302.4306 820.3964 1302.4306 806.6034 L 1302.4306 805.0164 C 1302.4306 783.4654 1316.4966 776.9854 1332.7406 776.9854 L 1335.5896 776.9854 L 1335.5896 764.2714 C 1335.5896 756.7154 1334.5176 752.2254 1328.3546 752.2254 C 1322.3146 752.2254 1320.7836 756.8924 1320.7836 763.1264 L 1320.7836 764.9904 L 1305.2496 764.9904 L 1305.2496 763.3734 C 1305.2496 750.4574 1310.2526 739.2134 1328.9006 739.2134 C 1345.6776 739.2134 1351.2996 748.9574 1351.2996 763.0544 Z" fill="#1e77e0"/>
      </g>
      <g id="Graphic_19">
        <path d="M 1367.2563 771.3672 C 1367.2563 756.5142 1367.3803 749.3652 1367.0803 740.6242 L 1382.0693 740.6242 C 1382.2453 742.6312 1382.5453 749.7022 1382.5453 755.0722 C 1386.0343 743.2832 1393.9273 739.4262 1402.1383 739.3202 L 1402.1383 758.7862 C 1391.4463 758.8392 1383.0383 763.0582 1383.0383 780.6992 L 1383.0383 831.1812 L 1367.2563 831.1812 Z" fill="#1e77e0"/>
      </g>
      <g id="Graphic_20">
        <path d="M 1410.9424 768.4082 C 1410.9424 750.1022 1410.9424 744.8862 1410.7664 740.6242 L 1425.8264 740.6242 C 1426.1264 742.6852 1426.4254 746.0692 1426.4254 749.2022 C 1429.0674 743.3732 1434.1404 739.2142 1443.0744 739.2142 C 1453.6314 739.2142 1461.3644 745.4712 1461.3644 762.3872 L 1461.3644 831.1812 L 1445.5824 831.1812 L 1445.5824 765.4002 C 1445.5824 756.9812 1442.7104 753.4622 1437.0774 753.4622 C 1430.1734 753.4622 1426.7254 757.0192 1426.7254 771.3312 L 1426.7254 831.1812 L 1410.9424 831.1812 Z" fill="#1e77e0"/>
      </g>
      <g id="Graphic_21">
        <path d="M 1477.301 727.224 L 1493.084 727.224 L 1493.084 708.335 L 1477.301 708.335 Z M 1477.177 831.182 L 1492.96 831.182 L 1492.96 740.624 L 1477.177 740.624 Z" fill="#1e77e0"/>
      </g>
      <g id="Graphic_22">
        <path d="M 1508.8862 768.4082 C 1508.8862 750.1022 1508.8862 744.8862 1508.7102 740.6242 L 1523.7702 740.6242 C 1524.0702 742.6852 1524.3692 746.0692 1524.3692 749.2022 C 1527.0102 743.3732 1532.0842 739.2142 1541.0182 739.2142 C 1551.5742 739.2142 1559.3082 745.4712 1559.3082 762.3872 L 1559.3082 831.1812 L 1543.5252 831.1812 L 1543.5252 765.4002 C 1543.5252 756.9812 1540.6542 753.4622 1535.0212 753.4622 C 1528.1172 753.4622 1524.6682 757.0192 1524.6682 771.3312 L 1524.6682 831.1812 L 1508.8862 831.1812 Z" fill="#1e77e0"/>
      </g>
      <g id="Graphic_23">
        <path d="M 1588.4365 767.4063 L 1588.4365 800.3983 C 1588.4365 810.6113 1590.9545 815.7013 1597.2245 815.7013 C 1606.0075 815.7013 1607.4535 807.8703 1607.4535 796.3163 L 1607.4535 769.6953 C 1607.4535 760.8573 1606.5365 753.4623 1598.2625 753.4623 C 1591.6605 753.4623 1588.4365 758.0023 1588.4365 767.4063 M 1623.1815 827.4563 C 1623.1815 846.8233 1621.1915 863.0343 1596.7115 863.0343 C 1576.2665 863.0343 1572.6735 849.8543 1572.6735 839.8993 L 1572.6735 839.4943 L 1588.5075 839.4943 L 1588.5075 839.9523 C 1588.5075 843.2603 1589.7375 849.8813 1597.5585 849.8813 C 1605.8155 849.8813 1607.4005 843.6313 1607.4005 831.5303 L 1607.4005 820.9113 C 1605.0565 826.4053 1600.1065 829.7003 1592.3205 829.7003 C 1576.9325 829.7003 1572.6015 818.0123 1572.6015 801.5963 L 1572.6015 766.4893 C 1572.6015 752.6683 1578.1815 739.2143 1594.2045 739.2143 C 1603.6315 739.2143 1607.6655 743.7773 1609.0925 748.5693 C 1609.0925 745.9093 1609.5675 742.2973 1609.8675 740.6243 L 1623.5335 740.6243 C 1623.3565 745.9643 1623.1815 753.7313 1623.1815 763.7533 Z" fill="#1e77e0"/>
      </g>
      <g id="Graphic_24">
        <path d="M 1240.249 945.8145 L 1240.249 950.1505 C 1240.249 964.2405 1237.818 982.0575 1214.448 982.0575 C 1193.252 982.0575 1189.109 968.0895 1189.109 950.4175 L 1189.109 890.8535 C 1189.109 872.4095 1197.284 861.0595 1214.695 861.0595 C 1235.789 861.0595 1239.719 875.4375 1239.719 891.3655 L 1239.719 896.3525 L 1223.833 896.3525 L 1223.833 889.7425 C 1223.833 881.2885 1222.157 875.4475 1214.59 875.4475 C 1207.286 875.4475 1205.189 880.8675 1205.189 889.9005 L 1205.189 951.6525 C 1205.189 961.0675 1207.16 967.7935 1214.871 967.7935 C 1222.528 967.7935 1224.238 961.4395 1224.238 951.7025 L 1224.238 945.8145 Z" fill="#49b6f9"/>
      </g>
      <g id="Graphic_25">
        <path d="M 1266.4204 916.0107 L 1266.4204 953.6717 C 1266.4204 962.0527 1269.0964 967.7927 1276.0004 967.7927 C 1282.4454 967.7927 1285.3844 963.1777 1285.3844 953.4247 L 1285.3844 915.8867 C 1285.3844 908.1057 1283.0614 902.4517 1275.9284 902.4517 C 1269.3084 902.4517 1266.4204 907.2227 1266.4204 916.0107 M 1301.2174 916.7697 L 1301.2174 952.8627 C 1301.2174 972.3647 1291.7214 981.8107 1275.7004 981.8107 C 1259.2904 981.8107 1250.5874 972.2757 1250.5874 953.1247 L 1250.5874 916.2047 C 1250.5874 897.5057 1260.9154 888.4347 1276.2284 888.4347 C 1292.1404 888.4347 1301.2174 898.4417 1301.2174 916.7697" fill="#49b6f9"/>
      </g>
      <g id="Graphic_26">
        <path d="M 1314.4077 917.6279 C 1314.4077 899.3229 1314.4077 894.1059 1314.2317 889.8439 L 1329.2917 889.8439 C 1329.5917 891.9059 1329.8907 895.2879 1329.8907 898.4209 C 1332.5317 892.5939 1337.6057 888.4349 1346.5397 888.4349 C 1357.0957 888.4349 1364.8297 894.6909 1364.8297 911.6069 L 1364.8297 980.4009 L 1349.0467 980.4009 L 1349.0467 914.6199 C 1349.0467 906.2009 1346.1757 902.6809 1340.5427 902.6809 C 1333.6387 902.6809 1330.1907 906.2389 1330.1907 920.5509 L 1330.1907 980.4009 L 1314.4077 980.4009 Z" fill="#49b6f9"/>
      </g>
      <g id="Graphic_27">
        <path d="M 1382.2129 980.4014 L 1382.2129 903.7374 L 1373.0349 903.7374 L 1373.0349 889.8434 L 1382.2129 889.8434 L 1382.2129 879.3354 C 1382.2129 867.4574 1386.9369 856.7254 1402.5699 856.7254 C 1405.0189 856.7254 1407.5569 856.9024 1409.1069 857.3784 L 1409.1069 871.5534 C 1407.6459 871.3244 1406.7289 871.2714 1405.4619 871.2714 C 1399.4019 871.2714 1397.9939 874.8804 1397.9939 881.2214 L 1397.9939 889.8434 L 1409.2329 889.8434 L 1409.2329 903.7374 L 1397.9939 903.7374 L 1397.9939 980.4014 Z" fill="#49b6f9"/>
      </g>
      <g id="Graphic_28">
        <path d="M 1449.4175 926.4678 L 1449.4175 916.3428 C 1449.4175 907.9398 1447.7255 901.8348 1440.1735 901.8348 C 1433.2215 901.8348 1430.6475 907.1828 1430.6475 916.3958 L 1430.6475 926.4678 Z M 1430.5235 939.0048 L 1430.5235 952.9378 C 1430.5235 960.7718 1432.2135 968.4098 1439.9275 968.4098 C 1447.6925 968.4098 1448.8715 961.7508 1448.8715 954.3398 L 1448.8715 953.7778 L 1464.2835 953.7778 L 1464.2835 954.2868 C 1464.2835 964.2038 1462.0815 981.8108 1440.1925 981.8108 C 1418.8645 981.8108 1415.1115 968.3108 1415.1115 949.9698 L 1415.1115 918.6018 C 1415.1115 905.6558 1419.3925 888.4348 1440.2265 888.4348 C 1458.7825 888.4348 1464.5825 901.4368 1464.5825 918.5308 L 1464.5825 939.0048 Z" fill="#49b6f9"/>
      </g>
      <g id="Graphic_29">
        <path d="M 1477.1753 920.5869 C 1477.1753 905.7329 1477.2993 898.5849 1476.9993 889.8439 L 1491.9883 889.8439 C 1492.1643 891.8519 1492.4643 898.9209 1492.4643 904.2919 C 1495.9533 892.5029 1503.8463 888.6459 1512.0573 888.5399 L 1512.0573 908.0059 C 1501.3653 908.0589 1492.9583 912.2779 1492.9583 929.9189 L 1492.9583 980.4009 L 1477.1753 980.4009 Z" fill="#49b6f9"/>
      </g>
      <g id="Graphic_30">
        <path d="M 1553.5259 926.4678 L 1553.5259 916.3428 C 1553.5259 907.9398 1551.8339 901.8348 1544.2829 901.8348 C 1537.3299 901.8348 1534.7559 907.1828 1534.7559 916.3958 L 1534.7559 926.4678 Z M 1534.6319 939.0048 L 1534.6319 952.9378 C 1534.6319 960.7718 1536.3219 968.4098 1544.0359 968.4098 C 1551.8009 968.4098 1552.9799 961.7508 1552.9799 954.3398 L 1552.9799 953.7778 L 1568.3919 953.7778 L 1568.3919 954.2868 C 1568.3919 964.2038 1566.1899 981.8108 1544.3009 981.8108 C 1522.9729 981.8108 1519.2219 968.3108 1519.2219 949.9698 L 1519.2219 918.6018 C 1519.2219 905.6558 1523.5009 888.4348 1544.3349 888.4348 C 1562.8909 888.4348 1568.6909 901.4368 1568.6909 918.5308 L 1568.6909 939.0048 Z" fill="#49b6f9"/>
      </g>
      <g id="Graphic_31">
        <path d="M 1581.2817 917.6279 C 1581.2817 899.3229 1581.2817 894.1059 1581.1057 889.8439 L 1596.1657 889.8439 C 1596.4657 891.9059 1596.7647 895.2879 1596.7647 898.4209 C 1599.4057 892.5939 1604.4797 888.4349 1613.4137 888.4349 C 1623.9697 888.4349 1631.7037 894.6909 1631.7037 911.6069 L 1631.7037 980.4009 L 1615.9207 980.4009 L 1615.9207 914.6199 C 1615.9207 906.2009 1613.0497 902.6809 1607.4167 902.6809 C 1600.5127 902.6809 1597.0647 906.2389 1597.0647 920.5509 L 1597.0647 980.4009 L 1581.2817 980.4009 Z" fill="#49b6f9"/>
      </g>
      <g id="Graphic_32">
        <path d="M 1692.65 950.9395 L 1692.65 952.1735 C 1692.65 968.2255 1688.58 981.8105 1668.5589 981.8105 C 1649.0139 981.8105 1644.9969 968.5575 1644.9969 950.0045 L 1644.9969 917.2265 C 1644.9969 902.2175 1650.1759 888.4345 1669.3889 888.4345 C 1690.029 888.4345 1692.65 903.4505 1692.65 915.0255 L 1692.65 918.5285 L 1677.0639 918.5285 L 1677.0639 915.0045 C 1677.0639 907.5205 1675.8499 901.8355 1669.0889 901.8355 C 1663.0499 901.8355 1660.8319 906.4475 1660.8319 915.3735 L 1660.8319 954.4515 C 1660.8319 961.5285 1662.1509 968.4105 1668.9839 968.4105 C 1675.3389 968.4105 1677.0639 963.7245 1677.0639 954.6435 L 1677.0639 950.9395 Z" fill="#49b6f9"/>
      </g>
      <g id="Graphic_33">
        <path d="M 1737.081 926.4678 L 1737.081 916.3428 C 1737.081 907.9398 1735.389 901.8348 1727.838 901.8348 C 1720.886 901.8348 1718.311 907.1828 1718.311 916.3958 L 1718.311 926.4678 Z M 1718.188 939.0048 L 1718.188 952.9378 C 1718.188 960.7718 1719.878 968.4098 1727.591 968.4098 C 1735.357 968.4098 1736.535 961.7508 1736.535 954.3398 L 1736.535 953.7778 L 1751.947 953.7778 L 1751.947 954.2868 C 1751.947 964.2038 1749.745 981.8108 1727.856 981.8108 C 1706.528 981.8108 1702.775 968.3108 1702.775 949.9698 L 1702.775 918.6018 C 1702.775 905.6558 1707.056 888.4348 1727.891 888.4348 C 1746.446 888.4348 1752.246 901.4368 1752.246 918.5308 L 1752.246 939.0048 Z" fill="#49b6f9"/>
      </g>
      <g id="Graphic_34">
        <path d="M 643.9785 625.5156 L 853.6055 504.4866 C 859.6945 500.9706 866.6295 499.1126 873.6605 499.1126 C 880.6915 499.1126 887.6275 500.9706 893.7165 504.4866 L 977.9295 553.1076 L 864.3705 618.6706 L 882.3265 629.0366 L 995.8855 563.4736 L 1103.3435 625.5156 L 873.6605 758.1206 Z" fill="#49b6f9"/>
      </g>
      <g id="Graphic_35">
        <path d="M 707.5649 767.2578 L 780.8279 809.5548 L 780.8279 788.8198 L 707.5649 746.5228 Z M 749.4059 972.3328 L 749.4059 878.9148 L 731.4499 868.5478 L 731.4499 961.9658 L 655.0549 917.8608 C 642.6849 910.7168 634.9999 897.4058 634.9999 883.1228 L 634.9999 641.0658 L 864.6819 773.6728 L 864.6819 894.0088 L 794.3699 853.4138 L 794.3699 874.1478 L 864.6819 914.7428 L 864.6819 1038.8878 Z" fill="#1b3a9e"/>
      </g>
      <g id="Graphic_36">
        <path d="M 882.6392 773.6738 L 967.2702 724.8118 L 967.2702 905.7138 L 1112.3222 821.9678 L 1112.3222 883.1228 C 1112.3222 897.4058 1104.6372 910.7178 1092.2662 917.8608 L 882.6392 1038.8878 Z" fill="#1e77e0"/>
      </g>
      <g id="Graphic_37">
        <path d="M 985.2261 714.4453 L 1112.3221 641.0653 L 1112.3221 801.2343 L 985.2261 874.6133 Z" fill="#83dcff"/>
      </g>
    </g>
  </g>
</svg>
